<svg xmlns="http://www.w3.org/2000/svg" id="Layer_1" data-name="Layer 1" viewBox="0 0 300 300"><title>muzza</title><polygon points="106.94 31.45 123.26 42.42 132.53 25.09 146.21 39.21 158.89 24.18 169.33 40.84 184.85 28.78 191.6 47.25 209.29 38.67 212.05 58.14 231.14 53.44 229.8 73.05 249.45 72.42 244.05 91.32 263.4 94.79 254.2 112.16 272.4 119.57 259.79 134.65 276.06 145.69 260.58 157.81 274.2 171.99 256.54 180.63 266.91 197.33 247.84 202.11 254.52 220.6 234.87 221.32 237.55 240.79 218.19 237.4 216.76 257.01 198.53 249.67 193.06 268.55 176.74 257.58 167.47 274.92 153.79 260.79 141.11 275.82 130.67 259.16 115.15 271.22 108.4 252.75 90.71 261.32 87.95 241.86 68.86 246.56 70.2 226.95 50.55 227.58 55.95 208.68 36.6 205.21 45.8 187.84 27.59 180.43 40.21 165.35 23.94 154.31 39.42 142.19 25.8 128.01 43.46 119.37 33.09 102.67 52.16 97.89 45.48 79.39 65.13 78.68 62.45 59.21 81.81 62.6 83.24 42.99 101.47 50.33 106.94 31.45" fill="#ff7546"></polygon><path d="M100.8,126.14c5.4,2.62,7.13,5.53,7.3,10.73.2,7.52-3.61,16.23-8.38,20A10.64,10.64,0,0,1,90.09,159a23.5,23.5,0,0,1-6.69-3.21c-3.74-2.6-6.16-7.87-4.69-16.21,2.32-13.41,12.23-28.86,22.35-35a6.51,6.51,0,0,1,4.87-1,10.43,10.43,0,0,1,3.43,1c.94.57,1,1.38.23,2a67.93,67.93,0,0,0-14.93,18.74A9.43,9.43,0,0,1,100.8,126.14ZM88.92,141.3c-2.11,5.89-1.73,11.3,0,12s5.35-2.85,7.7-8.79c2.46-6.21,2.74-12.58,1.19-13.28C95.62,130.29,91,135.33,88.92,141.3Z" fill="#fff"></path><path d="M114.65,133.36c1-10.58,6.31-23.81,13.71-31.55,3.26-3.37,7.37-5.32,11.89-3.45a26.4,26.4,0,0,1,7.2,4.19c3.07,2.57,4.05,6.37,4.05,12,0,9-3.81,26-13.13,34.11a13.16,13.16,0,0,1-11,3.11,19.59,19.59,0,0,1-7.48-3.05C117.27,147,113.71,143.18,114.65,133.36Zm11.25,12.71c2.52,1.43,8-3.7,12.52-17.44,4.7-14.45,4.35-22.77,2.39-23.89-2.63-1.57-9.44,7.54-13.49,19.29C123.29,135.52,123.67,144.84,125.9,146.07Z" fill="#fff"></path><path d="M155.76,125.46c1-10.58,6.31-23.81,13.71-31.55,3.26-3.37,7.37-5.32,11.88-3.45a26.3,26.3,0,0,1,7.21,4.19c3.07,2.56,4.05,6.36,4.05,12,0,9-3.81,26-13.14,34.1a13.11,13.11,0,0,1-11,3.12,19.59,19.59,0,0,1-7.48-3C158.38,139.09,154.82,135.28,155.76,125.46ZM167,138.17c2.52,1.43,8-3.7,12.52-17.44,4.7-14.45,4.35-22.77,2.39-23.89-2.63-1.57-9.44,7.54-13.5,19.29C164.4,127.62,164.78,136.94,167,138.17Z" fill="#fff"></path><path d="M210.74,125.78a2.6,2.6,0,0,1-2.69-.06,10.66,10.66,0,0,1-1.83-1.34c-.83-.71-1-1.2,0-1.92a38.87,38.87,0,0,1,8-4.27,2.7,2.7,0,0,1,3.6.88,13.47,13.47,0,0,1,2.13,3.19,3.59,3.59,0,0,1,0,3.67c-4.38,8.69-11,13.81-18.3,10.44-4.79-2.22-6.39-5.12-6-10.08.66-7.8,6.51-20.91,12.83-26.19,2-1.67,3.86-2.61,6.56-1.85a16.83,16.83,0,0,1,5.12,2.39,4.65,4.65,0,0,1,1.53,4.36,32.2,32.2,0,0,1-3,10.23c-.47.9-1,1.35-1.94.84a13.59,13.59,0,0,1-2.57-1.89,4.19,4.19,0,0,1-.51-3.28c.37-1.7,2.2-7,1-7.45s-5.65,5.1-9,13.24c-3.62,9-3.63,15.3-1.69,16.32s6.19-3.22,9.39-8.37C212.56,125,211.38,125.48,210.74,125.78Z" fill="#fff"></path><path d="M108.08,207.25c-.39,1.73-1.08,1.86-2.37,1.17-1-.59-1.53-.85-2.82-1.54s-1.44-1.89-1.22-3.73c.78-5.7,3.36-14.77,6-23.36a254.07,254.07,0,0,0-12.85,27.62c-.66,1.79-1.2,2-2.57,1.58a24.68,24.68,0,0,1-4.18-1.5c-1.43-.67-2.21-1.74-2.4-3.87a138.86,138.86,0,0,1-.36-17.22c-2.82,8.18-6.4,21-8,28.21a1.32,1.32,0,0,1-2.05,1,12.39,12.39,0,0,1-3.56-2.42,3.47,3.47,0,0,1-.7-2.89c1.76-11.07,8-31.37,12.31-40.91.7-1.58,1.43-1.94,3.1-1.47a24.34,24.34,0,0,1,6,2.74c1.34,1,1.32,2.41,1.16,3.81-.66,6.69-1,13.67-1.12,20.39a183.53,183.53,0,0,1,16.69-31.59c1.18-1.74,1.83-1.73,3.41-1a22,22,0,0,1,5.51,3.91c1.6,1.57,1.5,3,.61,5.43A368.15,368.15,0,0,0,108.08,207.25Z" fill="#fff"></path><path d="M133.68,161.26c1.28,1.41,1.48,3.17.43,5.6-7,16.63-9.88,31.45-7.16,32.44,3.71,1.3,14-14.44,20.49-43.71.33-1.29,1.09-1.8,2.38-1.11a11.33,11.33,0,0,1,3.4,2.3c.92,1.05,1.27,2.13,1,4.28-2.05,15.17-7.48,28.53-12.51,36.49-4.86,7.71-9.77,7.64-13.1,7.2a19.28,19.28,0,0,1-7.65-3.07c-3-2.16-3.61-6-3.23-11.19.48-6.51,5.66-22.64,10.83-31,.89-1.4,1.42-1.64,2.77-.6A22.11,22.11,0,0,1,133.68,161.26Z" fill="#fff"></path><path d="M164.14,160.37c-2,.67-3.6.77-4.65.18a12,12,0,0,1-2.49-2.12c-.64-.67-.85-1.42.32-2.08a72.8,72.8,0,0,1,18.51-7.52,3,3,0,0,1,3.42.93,31.09,31.09,0,0,1,3.51,4.37c.82,1.28,1,2-.43,3.76a207.22,207.22,0,0,0-23,32.23,89.05,89.05,0,0,1,9-2.46,5.05,5.05,0,0,1,3.42.21c.95.39,1.95,1.86,2.65,2.51s.7,1.38-.31,1.79a132.49,132.49,0,0,0-15.44,7c-1.75,1-2.5.48-3.61,0a25.57,25.57,0,0,1-5.38-3.65c-1.21-1.06-1.32-2-.39-3.89a158.56,158.56,0,0,1,23.62-34.22C169.12,158.55,165.77,159.84,164.14,160.37Z" fill="#fff"></path><path d="M192.7,154.88c-2,.67-3.6.77-4.65.18a12.5,12.5,0,0,1-2.49-2.12c-.64-.67-.85-1.42.32-2.08a72.8,72.8,0,0,1,18.51-7.52,3,3,0,0,1,3.42.93,30.38,30.38,0,0,1,3.51,4.37c.82,1.28,1,2-.43,3.76a207.22,207.22,0,0,0-23,32.23,89.05,89.05,0,0,1,9-2.46,5.05,5.05,0,0,1,3.42.21c.95.39,1.95,1.86,2.65,2.52s.7,1.37-.3,1.78a134.26,134.26,0,0,0-15.45,7c-1.75,1-2.5.48-3.61,0a25.57,25.57,0,0,1-5.38-3.65c-1.21-1.06-1.32-2-.39-3.89A158.56,158.56,0,0,1,201.5,151.9C197.68,153.06,194.33,154.35,192.7,154.88Z" fill="#fff"></path><path d="M214.11,181.54c-1.13,2.37-2.07,4.57-2.85,6.53s-1.36,1.91-2.55,1a8.85,8.85,0,0,1-2-1.85c-1.25-1.27-1.47-2.74-.5-5.23a369.83,369.83,0,0,1,20.29-41.37c.82-1.38,1.5-2.31,3.95-1.56a31.8,31.8,0,0,1,5.22,2c2.6,1.16,2.27,2.44,2.05,4.29-1.47,11.45-2.58,27.08-2,37.13,0,1.36-.42,1.6-1.68,1.41a10.61,10.61,0,0,1-3.16-1c-1.35-.68-1.87-1.52-2.08-3.35-.1-.92-.18-2.06-.29-3.4A119.16,119.16,0,0,0,214.11,181.54Zm14.27-12a162.24,162.24,0,0,1,1.1-19c-3.18,5.95-7.47,14.34-11.35,22.29C221.92,171.53,225.17,170.48,228.38,169.57Z" fill="#fff"></path></svg>