<svg xmlns="http://www.w3.org/2000/svg" id="Layer_1" data-name="Layer 1" viewBox="0 0 104.04 81.22"><title>Artboard 2</title><path d="M32.57,30.4a2.41,2.41,0,0,1-1.35-3.24c.69-2.38,3.15-6.23,5.34-7.72A2.07,2.07,0,0,1,38.65,19a5.08,5.08,0,0,1,1.37.85,1.33,1.33,0,0,1,.21,1.39,10.79,10.79,0,0,1-1.51,3.06c-.19.27-.38.39-.63.2a3,3,0,0,1-.64-.63,1.24,1.24,0,0,1,0-1c.22-.49,1.09-2.18.83-2.32s-2,1.48-3.48,3.92c-1.62,2.64-1.93,4.62-1.44,4.93s2.29-.94,3.74-2.71c.26-.32.47-.35.61-.1a1.4,1.4,0,0,1,0,1.6,5.6,5.6,0,0,1-2.84,2.61A3.41,3.41,0,0,1,32.57,30.4Z" fill="#ffdccc" stroke="#ffdccc" stroke-miterlimit="10" stroke-width="0.71"></path><path d="M39.35,25.76a16.17,16.17,0,0,1,4.49-6.88,2.15,2.15,0,0,1,2.51-.5,4.44,4.44,0,0,1,1.25.92A3.2,3.2,0,0,1,48,22c-.31,1.78-1.77,5.55-4.3,7.41a2.75,2.75,0,0,1-2.35.46A3.84,3.84,0,0,1,39.89,29C39.42,28.62,38.77,27.86,39.35,25.76Zm1.84,2.82c.47.36,1.85-.67,3.45-3.62s1.93-4.88,1.58-5.2-2.26,1.48-3.67,4S40.79,28.27,41.19,28.58Z" fill="#ffdccc" stroke="#ffdccc" stroke-miterlimit="10" stroke-width="0.71"></path><path d="M48.14,29.05c-.12.29-.29.29-.54.18a2,2,0,0,1-.76-.66.82.82,0,0,1-.09-.72,88.6,88.6,0,0,1,4.53-10,.65.65,0,0,1,.85-.36,5,5,0,0,1,1.44.66c.37.23.32.46.21,1-.28,1.39-.62,3.82-.8,5.66a65.41,65.41,0,0,1,4.16-7.63c.16-.25.35-.36.59-.07a1.73,1.73,0,0,1,.06,2c-1,2-2.89,5.79-4.22,9a.53.53,0,0,1-.78.35,4.71,4.71,0,0,1-1.13-.51,1.17,1.17,0,0,1-.54-1.09,33.43,33.43,0,0,1,.43-5.07C50.34,24,48.84,27.33,48.14,29.05Z" fill="#ffdccc" stroke="#ffdccc" stroke-miterlimit="10" stroke-width="0.71"></path><path d="M56.24,25.3a5.88,5.88,0,0,0,3.57,1c.68-.08,1-.45.63-.89s-1.76-1.33-2.41-2a2,2,0,0,1-.14-2.62,11.75,11.75,0,0,1,4.18-4.19,2.13,2.13,0,0,1,2.14-.31,4.23,4.23,0,0,1,1.33,1,1.29,1.29,0,0,1,.06,1.37,13.75,13.75,0,0,1-2.17,3.52c-.23.27-.42.34-.65.14a2.36,2.36,0,0,1-.5-.71,1.18,1.18,0,0,1,.16-.94c.38-.77,1.58-2.7,1.27-2.86S61.1,19.53,60.23,21c-.61,1-.3,1.36.08,1.73s1.27.92,1.71,1.36a1.46,1.46,0,0,1,.12,2.16,3.86,3.86,0,0,1-2.68,1.67,4.3,4.3,0,0,1-3.12-.9,1.53,1.53,0,0,1-.59-1.39C55.77,25.25,56,25.15,56.24,25.3Z" fill="#ffdccc" stroke="#ffdccc" stroke-miterlimit="10" stroke-width="0.71"></path><path d="M69.42,16.38c.24.37.21.81-.16,1.4-2.47,4-3.84,7.58-3.24,7.88.84.39,4.06-3.31,7-10.42.14-.31.35-.43.63-.23a2.44,2.44,0,0,1,.72.63,1.16,1.16,0,0,1,0,1.08,27.18,27.18,0,0,1-4.72,8.78C68.13,27.31,67,27.2,66.16,27a4,4,0,0,1-1.7-.9c-.63-.59-.59-1.55-.26-2.83a27.18,27.18,0,0,1,4-7.45c.28-.33.42-.38.7-.09A5.61,5.61,0,0,1,69.42,16.38Z" fill="#ffdccc" stroke="#ffdccc" stroke-miterlimit="10" stroke-width="0.71"></path><path d="M76.37,23.53a1,1,0,0,1,.82.17,1.9,1.9,0,0,1,.59.76c.1.27,0,.39-.28.47-.89.28-2.89.87-3.9,1.32-.38.16-.52.2-.77,0a7.27,7.27,0,0,1-.73-.59c-.29-.26-.29-.51-.14-.94a63.18,63.18,0,0,1,4.88-10c.21-.32.42-.38.73-.15a3.34,3.34,0,0,1,.8.74c.23.29.23.5-.09,1a65.2,65.2,0,0,0-4.07,7.76A15.21,15.21,0,0,1,76.37,23.53Z" fill="#ffdccc" stroke="#ffdccc" stroke-miterlimit="10" stroke-width="0.71"></path><path d="M82.27,16a2.18,2.18,0,0,1-2.12-.59c-.25-.23-.14-.52.17-.65a22.83,22.83,0,0,1,5.21-1.27,2.52,2.52,0,0,1,2.12.71c.3.35.19.57-.23.69s-1.39.33-2.26.54a2.29,2.29,0,0,1-.16.28,61.72,61.72,0,0,0-5.1,9.62c-.12.31-.26.36-.52.2a2.47,2.47,0,0,1-.69-.58.8.8,0,0,1-.14-.94,55.46,55.46,0,0,1,3.88-8Z" fill="#ffdccc" stroke="#ffdccc" stroke-miterlimit="10" stroke-width="0.71"></path><path d="M90.25,18.14a.79.79,0,0,1,.78.2,3.17,3.17,0,0,1,.45.65c.12.25,0,.39-.21.46-.9.24-2.23.59-3.48,1.06-.36.75-.71,1.47-1,2.16a15.12,15.12,0,0,1,2.62-.57,1,1,0,0,1,.88.2,2.49,2.49,0,0,1,.54.7c.14.32,0,.46-.29.52a35.9,35.9,0,0,0-4.25,1.31c-.61.26-.73.19-1,0a3.19,3.19,0,0,1-.63-.49c-.22-.23-.35-.39-.15-.9a66.35,66.35,0,0,1,3.82-8.3c-.08-.23-.17-.52-.22-.68-.09-.33,0-.5.35-.62a25.16,25.16,0,0,1,5.08-1.14,1.22,1.22,0,0,1,1,.25,2.7,2.7,0,0,1,.53.82c.09.31,0,.41-.38.48-1,.2-2.92.69-4.19,1.11-.51.88-1.06,1.92-1.64,3C89.43,18.27,89.92,18.17,90.25,18.14Z" fill="#ffdccc" stroke="#ffdccc" stroke-miterlimit="10" stroke-width="0.71"></path><path d="M40.46,42.74c-.21.46-.38.34-.64.16a2.35,2.35,0,0,1-.59-.56.88.88,0,0,1-.12-1,57.39,57.39,0,0,1,3.81-7.6,4.46,4.46,0,0,1-.61-.73c-.19-.29-.19-.49.12-.66A10.9,10.9,0,0,1,46.17,31a3.76,3.76,0,0,1,3.17,1.06c1,1,.35,1.86,0,2.58a10.69,10.69,0,0,1-5.13,4.42,1.28,1.28,0,0,1-1.69-.48C41.77,40,41.07,41.41,40.46,42.74Zm7.45-10.05c-.15-.34-1.37,0-2.29.45-.88,1.36-1.81,3-2.7,4.65C45.13,37.1,48.26,33.38,47.91,32.69Z" fill="#ffdccc" stroke="#ffdccc" stroke-miterlimit="10" stroke-width="0.71"></path><path d="M48.72,37.58a16.17,16.17,0,0,1,4.49-6.88,2.12,2.12,0,0,1,2.5-.49,4.39,4.39,0,0,1,1.26.91,3.24,3.24,0,0,1,.38,2.68c-.31,1.78-1.77,5.55-4.3,7.41a2.72,2.72,0,0,1-2.35.46,3.64,3.64,0,0,1-1.44-.81C48.79,40.44,48.14,39.68,48.72,37.58Zm1.84,2.82c.47.36,1.85-.67,3.45-3.62s1.93-4.88,1.58-5.2-2.26,1.48-3.67,4S50.16,40.09,50.56,40.4Z" fill="#ffdccc" stroke="#ffdccc" stroke-miterlimit="10" stroke-width="0.71"></path><path d="M57.39,40.78c-.18.42-.4.32-.68.15a1.69,1.69,0,0,1-.56-.57,1,1,0,0,1-.12-1,61.14,61.14,0,0,1,3.9-7.75,5.84,5.84,0,0,1-.66-.65c-.23-.24-.19-.43.12-.63a9.51,9.51,0,0,1,3.8-1.3,3.82,3.82,0,0,1,3.18,1c1,1,.47,1.72,0,2.38a15.16,15.16,0,0,1-5.26,4.19,14.28,14.28,0,0,0,2.35,2.54c.26.2.23.39,0,.54a3.58,3.58,0,0,1-.92.45A1.08,1.08,0,0,1,61.46,40a12.14,12.14,0,0,1-2.54-2.38C58.36,38.66,57.84,39.75,57.39,40.78ZM65,30.66c-.14-.3-1.48,0-2.44.47-.75,1.18-1.57,2.56-2.37,4C62.4,34.07,65.31,31.32,65,30.66Z" fill="#ffdccc" stroke="#ffdccc" stroke-miterlimit="10" stroke-width="0.71"></path><path d="M74,36.7a1,1,0,0,1,.82.16,1.91,1.91,0,0,1,.59.77c.11.27,0,.39-.28.47-.88.28-2.89.87-3.9,1.32-.38.17-.52.2-.76,0a6.3,6.3,0,0,1-.73-.59c-.3-.26-.3-.51-.14-.94a62.28,62.28,0,0,1,4.87-10c.21-.32.42-.38.73-.15a3.16,3.16,0,0,1,.8.74c.23.29.23.5-.08,1a65.2,65.2,0,0,0-4.08,7.76A15.54,15.54,0,0,1,74,36.7Z" fill="#ffdccc" stroke="#ffdccc" stroke-miterlimit="10" stroke-width="0.71"></path><path d="M78,36.94c-.38.56-.71,1.09-1,1.56s-.42.44-.66.19a1.63,1.63,0,0,1-.4-.49c-.25-.34-.23-.71.12-1.3a108.11,108.11,0,0,1,6.82-9.85.74.74,0,0,1,1-.31,7,7,0,0,1,1.16.6c.58.34.44.65.3,1.1a62.53,62.53,0,0,0-2.21,9.14c0,.34-.17.39-.47.32a2.58,2.58,0,0,1-.71-.32.78.78,0,0,1-.35-.87c0-.23,0-.51.09-.85A32.52,32.52,0,0,0,78,36.94Zm4-2.69a43.37,43.37,0,0,1,1.15-4.68c-1,1.41-2.47,3.4-3.77,5.29C80.32,34.61,81.16,34.41,82,34.25Z" fill="#ffdccc" stroke="#ffdccc" stroke-miterlimit="10" stroke-width="0.71"></path><path d="M45.71,55c-.21.46-.39.34-.65.16a2.47,2.47,0,0,1-.59-.55.9.9,0,0,1-.12-1A57.39,57.39,0,0,1,48.16,46a4.46,4.46,0,0,1-.61-.73c-.19-.29-.19-.48.12-.66a11.19,11.19,0,0,1,3.74-1.35,3.76,3.76,0,0,1,3.17,1.07c1,.95.35,1.85,0,2.58a10.75,10.75,0,0,1-5.13,4.42,1.29,1.29,0,0,1-1.69-.49C47,52.29,46.31,53.71,45.71,55ZM53.15,45c-.15-.33-1.37,0-2.29.45-.87,1.36-1.81,3-2.7,4.65C50.37,49.39,53.5,45.67,53.15,45Z" fill="#ffdccc" stroke="#ffdccc" stroke-miterlimit="10" stroke-width="0.71"></path><path d="M53.11,53.77c-.26-.27-.28-.51-.13-1A58.18,58.18,0,0,1,57.81,42.7c.22-.35.43-.38.74-.15a4.68,4.68,0,0,1,.79.73c.22.3.21.5-.09,1a72,72,0,0,0-4.89,9.83c-.1.31-.28.35-.52.18A3.88,3.88,0,0,1,53.11,53.77Z" fill="#ffdccc" stroke="#ffdccc" stroke-miterlimit="10" stroke-width="0.71"></path><path d="M61.64,44.27a1.41,1.41,0,0,1-1.14-.05,2.76,2.76,0,0,1-.5-.57c-.12-.17-.14-.36.17-.5A19.23,19.23,0,0,1,65,41.64c.5-.08.62.08.78.29a6.69,6.69,0,0,1,.64,1.14c.14.34.16.53-.28.92a60.94,60.94,0,0,0-7,7.54,22.11,22.11,0,0,1,2.3-.44,1.16,1.16,0,0,1,.82.12c.21.11.38.49.52.67s.11.35-.15.43a37.79,37.79,0,0,0-4.06,1.44.73.73,0,0,1-.87-.07,5.27,5.27,0,0,1-1.13-1c-.25-.29-.23-.52.09-1a46.53,46.53,0,0,1,7.29-8C62.92,43.91,62.05,44.17,61.64,44.27Z" fill="#ffdccc" stroke="#ffdccc" stroke-miterlimit="10" stroke-width="0.71"></path><path d="M68.79,43.45a1.43,1.43,0,0,1-1.13-.05,2.28,2.28,0,0,1-.5-.57c-.13-.17-.14-.36.17-.5a19.55,19.55,0,0,1,4.82-1.52c.51-.07.63.09.79.3a6.69,6.69,0,0,1,.64,1.14c.14.34.16.52-.28.92a60.94,60.94,0,0,0-7,7.54,22.11,22.11,0,0,1,2.3-.44,1.22,1.22,0,0,1,.82.11c.21.12.38.5.52.68s.1.35-.16.43a35.63,35.63,0,0,0-4,1.44.74.74,0,0,1-.87-.07,5.27,5.27,0,0,1-1.13-1c-.25-.29-.23-.52.08-1a46.6,46.6,0,0,1,7.3-8C70.08,43.09,69.21,43.35,68.79,43.45Z" fill="#ffdccc" stroke="#ffdccc" stroke-miterlimit="10" stroke-width="0.71"></path><path d="M72.73,50.43c-.38.57-.71,1.1-1,1.56s-.42.45-.66.2a1.73,1.73,0,0,1-.4-.49c-.25-.34-.23-.71.12-1.31a108.07,108.07,0,0,1,6.82-9.84.74.74,0,0,1,1-.31,6.33,6.33,0,0,1,1.16.6c.58.34.44.65.3,1.1a62.23,62.23,0,0,0-2.21,9.14c-.05.33-.17.38-.47.31a2.09,2.09,0,0,1-.71-.32.77.77,0,0,1-.35-.86c0-.23,0-.51.08-.85A32.81,32.81,0,0,0,72.73,50.43Zm4-2.69a43.16,43.16,0,0,1,1.15-4.67c-1,1.4-2.47,3.4-3.77,5.29C75.08,48.11,75.91,47.91,76.73,47.74Z" fill="#ffdccc" stroke="#ffdccc" stroke-miterlimit="10" stroke-width="0.71"></path><path d="M38.26,59.2c-.21-.27-.14-.45.15-.66a7.06,7.06,0,0,1,2-1,4.89,4.89,0,0,1,3.34,0c1.38.69,1.95,1.53,1.86,2.62-.24,3.15-5,7-8.12,8.71-.53.26-.73.38-1.27.21a5.23,5.23,0,0,1-1.31-.62c-.33-.24-.43-.33-.21-.88.75-1.77,2.63-5.53,3.93-8C38.52,59.52,38.36,59.35,38.26,59.2Zm-1.34,8.08c4.89-2.86,7.28-7.31,6.79-8.09-.26-.41-1.6-.29-2.63.35C40.05,61.3,38.19,64.77,36.92,67.28Z" fill="#ffdccc" stroke="#ffdccc" stroke-miterlimit="10" stroke-width="0.71"></path><path d="M49.4,61.51a.81.81,0,0,1,.79.21,3.73,3.73,0,0,1,.45.64c.12.25,0,.4-.21.46-.9.25-2.23.59-3.48,1.06-.37.76-.71,1.48-1,2.16a14,14,0,0,1,2.61-.56,1,1,0,0,1,.89.19,2.68,2.68,0,0,1,.54.71c.14.31,0,.45-.29.52a32.53,32.53,0,0,0-4.25,1.31c-.61.26-.73.18-1,0a3.16,3.16,0,0,1-.63-.48c-.23-.24-.35-.4-.16-.91a67.84,67.84,0,0,1,3.83-8.29c-.08-.24-.17-.52-.22-.69-.09-.32,0-.49.34-.61a25.3,25.3,0,0,1,5.09-1.15,1.19,1.19,0,0,1,1,.25,2.77,2.77,0,0,1,.54.83c.09.3-.05.4-.38.48a42.91,42.91,0,0,0-4.19,1.11c-.51.87-1.07,1.91-1.64,3C48.59,61.64,49.07,61.55,49.4,61.51Z" fill="#ffdccc" stroke="#ffdccc" stroke-miterlimit="10" stroke-width="0.71"></path><path d="M55.48,64.61a1,1,0,0,1,.82.17,1.85,1.85,0,0,1,.59.77c.11.26,0,.38-.28.46-.88.28-2.89.88-3.9,1.32-.38.17-.52.2-.76,0a6.42,6.42,0,0,1-.73-.6c-.3-.26-.3-.5-.14-.94a62.69,62.69,0,0,1,4.87-10c.21-.31.42-.37.73-.15a3.2,3.2,0,0,1,.8.75c.23.28.23.49-.08,1a65.37,65.37,0,0,0-4.08,7.77A17.28,17.28,0,0,1,55.48,64.61Z" fill="#ffdccc" stroke="#ffdccc" stroke-miterlimit="10" stroke-width="0.71"></path><path d="M71.61,64.75c-.18.42-.35.44-.63.24l-.61-.43c-.28-.2-.26-.49-.12-1A47.18,47.18,0,0,1,72.79,58a73,73,0,0,0-4.39,6.58c-.24.43-.38.46-.69.34a4.55,4.55,0,0,1-.94-.45.9.9,0,0,1-.41-1,37.06,37.06,0,0,1,.72-4.26c-1.06,2-2.53,5.08-3.26,6.82a.34.34,0,0,1-.54.2,2.42,2.42,0,0,1-.74-.66.84.84,0,0,1,0-.73,60.52,60.52,0,0,1,4.88-9.88c.24-.38.43-.45.81-.3a5,5,0,0,1,1.33.79.9.9,0,0,1,.1,1c-.47,1.64-.87,3.36-1.22,5a53.51,53.51,0,0,1,5.5-7.5c.37-.41.53-.39.87-.19a4.71,4.71,0,0,1,1.15,1.07c.31.42.23.76-.1,1.36C74.16,59.12,72.65,62.33,71.61,64.75Z" fill="#ffdccc" stroke="#ffdccc" stroke-miterlimit="10" stroke-width="0.71"></path><path d="M79.2,58.09a.79.79,0,0,1,.78.21,2.88,2.88,0,0,1,.45.64c.13.25,0,.4-.21.46-.9.25-2.22.59-3.48,1.07-.36.75-.71,1.47-1,2.15a14.72,14.72,0,0,1,2.61-.56,1,1,0,0,1,.88.19,2.68,2.68,0,0,1,.54.71c.14.31,0,.45-.29.52a34.13,34.13,0,0,0-4.25,1.31c-.61.26-.73.18-1,0a3.62,3.62,0,0,1-.63-.49.69.69,0,0,1-.15-.91,65,65,0,0,1,3.83-8.29c-.09-.24-.18-.52-.23-.69s0-.49.35-.61a25.22,25.22,0,0,1,5.08-1.15,1.22,1.22,0,0,1,1,.25,2.77,2.77,0,0,1,.54.83c.08.3-.06.41-.39.48a42.91,42.91,0,0,0-4.19,1.11c-.51.87-1.06,1.91-1.64,3C78.38,58.22,78.87,58.13,79.2,58.09Z" fill="#ffdccc" stroke="#ffdccc" stroke-miterlimit="10" stroke-width="0.71"></path><path d="M81.13,61.13a5.81,5.81,0,0,0,3.57,1c.68-.08,1-.44.63-.89s-1.76-1.33-2.4-2a2,2,0,0,1-.14-2.61A11.79,11.79,0,0,1,87,52.44a2.14,2.14,0,0,1,2.15-.31,4.3,4.3,0,0,1,1.32,1,1.29,1.29,0,0,1,.07,1.37A13.77,13.77,0,0,1,88.32,58c-.22.27-.42.34-.64.14a2.31,2.31,0,0,1-.51-.7,1.19,1.19,0,0,1,.16-1c.38-.77,1.58-2.7,1.27-2.86S86,55.36,85.12,56.8c-.61,1-.3,1.36.09,1.73s1.27.92,1.7,1.36A1.46,1.46,0,0,1,87,62.05a3.86,3.86,0,0,1-2.68,1.67,4.27,4.27,0,0,1-3.11-.9,1.51,1.51,0,0,1-.59-1.39C80.66,61.08,80.89,61,81.13,61.13Z" fill="#ffdccc" stroke="#ffdccc" stroke-miterlimit="10" stroke-width="0.71"></path><path d="M31,29.71a2.41,2.41,0,0,1-1.36-3.24c.7-2.38,3.15-6.23,5.35-7.72a2.07,2.07,0,0,1,2.09-.43,5.24,5.24,0,0,1,1.37.85,1.33,1.33,0,0,1,.21,1.39,11.06,11.06,0,0,1-1.51,3.06c-.19.27-.39.4-.63.2a2.74,2.74,0,0,1-.64-.63,1.27,1.27,0,0,1,0-1c.23-.49,1.1-2.18.84-2.32s-2,1.48-3.48,3.92c-1.62,2.64-1.93,4.63-1.45,4.94s2.3-.95,3.75-2.71c.26-.33.47-.35.61-.11a1.4,1.4,0,0,1,0,1.6,5.6,5.6,0,0,1-2.84,2.61A3.41,3.41,0,0,1,31,29.71Z" fill="#ff7546"></path><path d="M37.82,25.07a16.24,16.24,0,0,1,4.49-6.88,2.14,2.14,0,0,1,2.5-.49,4.43,4.43,0,0,1,1.26.92,3.21,3.21,0,0,1,.38,2.67c-.31,1.78-1.78,5.55-4.3,7.41a2.72,2.72,0,0,1-2.35.46,3.64,3.64,0,0,1-1.44-.81C37.89,27.93,37.24,27.17,37.82,25.07Zm1.84,2.82c.47.36,1.85-.67,3.45-3.62s1.93-4.87,1.58-5.2-2.26,1.48-3.67,4S39.26,27.58,39.66,27.89Z" fill="#ff7546"></path><path d="M46.61,28.36c-.12.29-.3.3-.54.18a2,2,0,0,1-.77-.66.82.82,0,0,1-.08-.72,90.3,90.3,0,0,1,4.52-10,.68.68,0,0,1,.86-.36,5.45,5.45,0,0,1,1.44.66c.37.23.31.47.21,1-.28,1.39-.63,3.82-.8,5.67a64.13,64.13,0,0,1,4.16-7.64c.16-.24.35-.35.59-.07a1.73,1.73,0,0,1,0,2c-1,2-2.89,5.79-4.21,9a.54.54,0,0,1-.78.36,5.14,5.14,0,0,1-1.13-.52,1.17,1.17,0,0,1-.54-1.09A32,32,0,0,1,50,21C48.8,23.35,47.31,26.64,46.61,28.36Z" fill="#ff7546"></path><path d="M54.71,24.61a5.8,5.8,0,0,0,3.57,1c.67-.08.95-.44.62-.89s-1.75-1.33-2.4-2a2,2,0,0,1-.14-2.61,11.75,11.75,0,0,1,4.18-4.19,2.13,2.13,0,0,1,2.14-.32,4.3,4.3,0,0,1,1.32,1A1.27,1.27,0,0,1,64.07,18,13.58,13.58,0,0,1,61.9,21.5c-.23.27-.42.35-.65.15a2.26,2.26,0,0,1-.5-.71A1.2,1.2,0,0,1,60.9,20c.39-.78,1.59-2.71,1.28-2.87s-2.62,1.71-3.49,3.15c-.6,1-.29,1.36.09,1.74s1.27.91,1.71,1.35a1.48,1.48,0,0,1,.12,2.17,3.9,3.9,0,0,1-2.68,1.66,4.32,4.32,0,0,1-3.12-.89,1.55,1.55,0,0,1-.59-1.4C54.24,24.56,54.46,24.46,54.71,24.61Z" fill="#ff7546"></path><path d="M67.89,15.69a1.23,1.23,0,0,1-.16,1.4c-2.47,4-3.85,7.58-3.24,7.88.84.39,4.06-3.31,7-10.42.14-.31.35-.42.63-.23a2.28,2.28,0,0,1,.71.63,1.13,1.13,0,0,1,0,1.08,27.37,27.37,0,0,1-4.72,8.78c-1.53,1.81-2.71,1.71-3.5,1.53a4,4,0,0,1-1.7-.9c-.63-.59-.6-1.55-.26-2.82a26.56,26.56,0,0,1,4-7.46c.28-.32.42-.37.7-.09A5.61,5.61,0,0,1,67.89,15.69Z" fill="#ff7546"></path><path d="M74.84,22.84a1,1,0,0,1,.81.17,1.88,1.88,0,0,1,.59.76c.11.27,0,.39-.27.47-.89.28-2.89.87-3.9,1.32-.38.17-.52.2-.77,0a7.71,7.71,0,0,1-.73-.6c-.29-.26-.29-.51-.14-.94a63.18,63.18,0,0,1,4.88-10c.2-.32.41-.38.73-.15a3.56,3.56,0,0,1,.8.74c.22.29.22.5-.09,1a65.37,65.37,0,0,0-4.07,7.77A13.79,13.79,0,0,1,74.84,22.84Z" fill="#ff7546"></path><path d="M80.74,15.32a2.21,2.21,0,0,1-2.12-.6c-.25-.23-.14-.52.17-.65A23.43,23.43,0,0,1,84,12.8a2.58,2.58,0,0,1,2.13.71c.29.35.19.57-.23.69s-1.39.33-2.26.54c0,.07-.09.17-.16.28a61.72,61.72,0,0,0-5.1,9.62c-.12.32-.26.37-.52.21a2.74,2.74,0,0,1-.7-.59.83.83,0,0,1-.14-.94,57.17,57.17,0,0,1,3.89-8Z" fill="#ff7546"></path><path d="M88.71,17.45a.84.84,0,0,1,.79.2,4.23,4.23,0,0,1,.45.65c.12.25,0,.4-.21.46-.9.24-2.23.59-3.48,1.06-.37.76-.71,1.48-1,2.16a14,14,0,0,1,2.61-.56,1,1,0,0,1,.89.19,2.49,2.49,0,0,1,.54.7c.14.32,0,.46-.3.53a34.46,34.46,0,0,0-4.24,1.3c-.61.26-.73.19-1,0a3.59,3.59,0,0,1-.63-.48c-.23-.24-.35-.4-.16-.91a68,68,0,0,1,3.83-8.3c-.09-.23-.17-.52-.22-.68-.09-.32,0-.49.34-.62A25.25,25.25,0,0,1,92,12a1.19,1.19,0,0,1,1,.25,2.65,2.65,0,0,1,.54.83c.09.3,0,.4-.38.47-1,.2-2.92.69-4.2,1.11-.5.88-1.06,1.92-1.63,3C87.9,17.58,88.38,17.49,88.71,17.45Z" fill="#ff7546"></path><path d="M38.93,42.05c-.21.46-.38.34-.64.16a2.56,2.56,0,0,1-.6-.56.92.92,0,0,1-.12-1A58.74,58.74,0,0,1,41.39,33a4.46,4.46,0,0,1-.61-.73c-.19-.29-.19-.48.12-.66a10.9,10.9,0,0,1,3.74-1.35,3.77,3.77,0,0,1,3.17,1.06c1,1,.35,1.86,0,2.58a10.71,10.71,0,0,1-5.13,4.43A1.3,1.3,0,0,1,41,37.88C40.24,39.31,39.54,40.73,38.93,42.05Zm7.45-10c-.16-.33-1.37,0-2.3.45-.87,1.36-1.81,3-2.69,4.65C43.6,36.41,46.73,32.69,46.38,32Z" fill="#ff7546"></path><path d="M47.19,36.89A16.24,16.24,0,0,1,51.68,30a2.15,2.15,0,0,1,2.5-.49,4.43,4.43,0,0,1,1.26.92,3.22,3.22,0,0,1,.38,2.67c-.31,1.78-1.78,5.55-4.3,7.41a2.73,2.73,0,0,1-2.35.46,3.57,3.57,0,0,1-1.44-.81C47.26,39.75,46.61,39,47.19,36.89ZM49,39.71c.47.36,1.85-.67,3.45-3.62s1.93-4.87,1.58-5.2-2.26,1.48-3.67,4S48.63,39.4,49,39.71Z" fill="#ff7546"></path><path d="M55.86,40.09c-.18.42-.4.32-.68.15a1.6,1.6,0,0,1-.56-.57,1,1,0,0,1-.12-1,61.14,61.14,0,0,1,3.9-7.75,5.84,5.84,0,0,1-.66-.65c-.23-.24-.2-.43.12-.63a9.85,9.85,0,0,1,3.79-1.3,3.84,3.84,0,0,1,3.19,1c1,1,.47,1.72,0,2.38a15.14,15.14,0,0,1-5.25,4.2A14.55,14.55,0,0,0,62,38.45c.26.2.22.39,0,.54a3.22,3.22,0,0,1-.93.45,1,1,0,0,1-1.11-.18,12.14,12.14,0,0,1-2.54-2.38C56.83,38,56.31,39.06,55.86,40.09ZM63.46,30c-.14-.3-1.48,0-2.43.47-.75,1.18-1.57,2.57-2.37,4C60.87,33.38,63.78,30.63,63.46,30Z" fill="#ff7546"></path><path d="M72.45,36a1,1,0,0,1,.82.17,2,2,0,0,1,.59.76c.1.27,0,.39-.28.47-.89.28-2.89.87-3.9,1.32-.38.17-.52.2-.76,0a6.62,6.62,0,0,1-.73-.6c-.3-.26-.3-.51-.14-.94a62.28,62.28,0,0,1,4.87-10c.21-.32.42-.38.73-.15a3.35,3.35,0,0,1,.8.74c.23.29.23.5-.09,1a66.87,66.87,0,0,0-4.07,7.77A14.07,14.07,0,0,1,72.45,36Z" fill="#ff7546"></path><path d="M76.44,36.25c-.38.56-.72,1.09-1,1.56s-.42.45-.67.2a2,2,0,0,1-.4-.5c-.24-.34-.22-.71.13-1.3a106.7,106.7,0,0,1,6.82-9.84c.26-.33.47-.55,1-.31a6.64,6.64,0,0,1,1.16.59c.58.34.44.65.3,1.1a62.84,62.84,0,0,0-2.21,9.14c0,.34-.18.39-.47.32a2.34,2.34,0,0,1-.72-.32c-.29-.19-.38-.41-.34-.87,0-.23,0-.51.08-.84A30.35,30.35,0,0,0,76.44,36.25Zm4-2.69a43.37,43.37,0,0,1,1.15-4.68c-1,1.41-2.47,3.4-3.78,5.29C78.79,33.92,79.62,33.72,80.44,33.56Z" fill="#ff7546"></path><path d="M44.17,54.34c-.21.46-.38.34-.64.17a2.35,2.35,0,0,1-.59-.56.92.92,0,0,1-.13-1,58,58,0,0,1,3.82-7.59A5,5,0,0,1,46,44.6c-.19-.29-.19-.48.12-.66a11.11,11.11,0,0,1,3.74-1.35,3.77,3.77,0,0,1,3.17,1.07c1,1,.35,1.86,0,2.58a10.69,10.69,0,0,1-5.13,4.42,1.29,1.29,0,0,1-1.69-.49C45.48,51.6,44.78,53,44.17,54.34Zm7.45-10.05c-.15-.33-1.37,0-2.3.46-.87,1.35-1.81,3-2.69,4.65C48.84,48.7,52,45,51.62,44.29Z" fill="#ff7546"></path><path d="M51.57,53.08c-.26-.27-.28-.51-.12-1A58.77,58.77,0,0,1,56.27,42c.23-.36.44-.38.75-.16a5.13,5.13,0,0,1,.79.73c.22.3.2.5-.09,1a72,72,0,0,0-4.89,9.83c-.11.31-.28.35-.53.18A4.23,4.23,0,0,1,51.57,53.08Z" fill="#ff7546"></path><path d="M60.1,43.58a1.39,1.39,0,0,1-1.13,0,2.07,2.07,0,0,1-.5-.56c-.12-.18-.14-.37.17-.51A19.28,19.28,0,0,1,63.46,41c.51-.08.63.08.79.29a6.69,6.69,0,0,1,.64,1.14c.14.34.16.53-.28.93a60.87,60.87,0,0,0-7,7.53,22.11,22.11,0,0,1,2.3-.44,1.16,1.16,0,0,1,.82.12c.21.11.38.49.52.67s.1.35-.16.43a36.59,36.59,0,0,0-4,1.45.73.73,0,0,1-.87-.08A5.27,5.27,0,0,1,55,52c-.25-.29-.23-.52.08-1a46.19,46.19,0,0,1,7.3-8C61.39,43.22,60.52,43.48,60.1,43.58Z" fill="#ff7546"></path><path d="M67.26,42.76a1.39,1.39,0,0,1-1.13,0,2.54,2.54,0,0,1-.51-.57c-.12-.17-.13-.36.18-.5a19.15,19.15,0,0,1,4.82-1.51c.5-.08.63.08.78.29a6.79,6.79,0,0,1,.65,1.14c.14.34.15.53-.28.92a61.66,61.66,0,0,0-7,7.54,22.11,22.11,0,0,1,2.3-.44,1.16,1.16,0,0,1,.82.12c.2.11.38.49.52.67s.1.35-.16.43a37.79,37.79,0,0,0-4.06,1.44.73.73,0,0,1-.87-.07,5.8,5.8,0,0,1-1.13-1c-.24-.29-.22-.52.09-1a46.53,46.53,0,0,1,7.29-8C68.55,42.4,67.68,42.66,67.26,42.76Z" fill="#ff7546"></path><path d="M71.2,49.75c-.39.56-.72,1.09-1,1.56s-.41.44-.66.19a1.8,1.8,0,0,1-.4-.49c-.24-.34-.22-.71.13-1.3a106.74,106.74,0,0,1,6.82-9.85.74.74,0,0,1,1-.31,7.91,7.91,0,0,1,1.16.6c.58.34.44.65.3,1.1a62.23,62.23,0,0,0-2.21,9.14c-.06.34-.18.38-.47.31a2.27,2.27,0,0,1-.72-.31.79.79,0,0,1-.34-.87c0-.23,0-.51.08-.85A32.39,32.39,0,0,0,71.2,49.75Zm4-2.69a42.79,42.79,0,0,1,1.15-4.68c-1,1.41-2.47,3.4-3.78,5.29C73.55,47.42,74.38,47.22,75.2,47.06Z" fill="#ff7546"></path><path d="M36.73,58.51c-.21-.27-.14-.45.15-.66a7.35,7.35,0,0,1,2-1,4.89,4.89,0,0,1,3.34,0c1.37.69,1.95,1.54,1.86,2.62-.24,3.15-5,7-8.13,8.71a1.34,1.34,0,0,1-1.27.21,5.49,5.49,0,0,1-1.3-.61c-.33-.25-.44-.34-.21-.89.75-1.77,2.63-5.52,3.93-8C37,58.83,36.83,58.66,36.73,58.51Zm-1.34,8.08c4.89-2.86,7.27-7.31,6.78-8.09-.26-.41-1.6-.29-2.62.35C38.52,60.61,36.66,64.08,35.39,66.59Z" fill="#ff7546"></path><path d="M47.87,60.82a.81.81,0,0,1,.79.21,3.73,3.73,0,0,1,.45.64c.12.25,0,.4-.21.46-.91.25-2.23.59-3.48,1.07-.37.75-.72,1.47-1,2.15A14.72,14.72,0,0,1,47,64.79a1.06,1.06,0,0,1,.89.19,2.91,2.91,0,0,1,.54.71c.14.31,0,.45-.3.52a35.75,35.75,0,0,0-4.24,1.31c-.61.26-.73.19-1,0a3.94,3.94,0,0,1-.62-.49c-.23-.23-.35-.39-.16-.9a65.82,65.82,0,0,1,3.83-8.3c-.09-.23-.17-.52-.23-.69s0-.49.35-.61a25.1,25.1,0,0,1,5.09-1.14,1.16,1.16,0,0,1,1,.24,2.77,2.77,0,0,1,.54.83c.09.3-.05.41-.38.48a42.31,42.31,0,0,0-4.2,1.11c-.5.88-1.06,1.91-1.63,3C47.05,61,47.54,60.86,47.87,60.82Z" fill="#ff7546"></path><path d="M54,63.92a1.06,1.06,0,0,1,.82.17,2,2,0,0,1,.59.77c.1.27,0,.38-.28.47-.89.27-2.89.87-3.9,1.32-.38.16-.52.19-.76,0a5.65,5.65,0,0,1-.73-.6c-.3-.26-.3-.5-.14-.94a62.18,62.18,0,0,1,4.87-10c.21-.32.42-.38.73-.16a3.39,3.39,0,0,1,.8.75c.23.28.23.49-.09,1a66.87,66.87,0,0,0-4.07,7.77A16.86,16.86,0,0,1,54,63.92Z" fill="#ff7546"></path><path d="M70.07,64.06c-.17.42-.35.44-.62.24l-.61-.43c-.28-.19-.26-.49-.13-.94a48.43,48.43,0,0,1,2.55-5.66,70.92,70.92,0,0,0-4.39,6.58c-.24.43-.38.46-.7.34a5.11,5.11,0,0,1-.94-.45.92.92,0,0,1-.4-1,37.06,37.06,0,0,1,.72-4.26c-1.07,2-2.53,5.08-3.26,6.82a.35.35,0,0,1-.54.2,2.59,2.59,0,0,1-.75-.66.85.85,0,0,1,0-.73,60.48,60.48,0,0,1,4.87-9.88c.25-.38.44-.45.82-.3a5,5,0,0,1,1.32.79c.28.26.21.62.11,1-.47,1.64-.87,3.36-1.22,5a54.1,54.1,0,0,1,5.5-7.5c.37-.4.52-.39.87-.18a4.35,4.35,0,0,1,1.15,1.07c.31.41.23.75-.11,1.35C72.63,58.43,71.12,61.64,70.07,64.06Z" fill="#ff7546"></path><path d="M77.66,57.4a.81.81,0,0,1,.79.21,3.73,3.73,0,0,1,.45.64c.12.25,0,.4-.21.46-.9.25-2.23.59-3.48,1.07-.37.75-.71,1.47-1,2.15a14.91,14.91,0,0,1,2.61-.56,1,1,0,0,1,.89.2,2.49,2.49,0,0,1,.54.7c.14.32,0,.45-.29.52a35.9,35.9,0,0,0-4.25,1.31c-.61.26-.73.19-1,0a3.19,3.19,0,0,1-.63-.49c-.23-.23-.35-.39-.16-.9a67.26,67.26,0,0,1,3.83-8.3c-.08-.23-.17-.52-.22-.69s0-.49.34-.61A25.4,25.4,0,0,1,80.94,52a1.16,1.16,0,0,1,1,.24,2.77,2.77,0,0,1,.54.83c.09.31,0,.41-.38.48a42.91,42.91,0,0,0-4.19,1.11c-.51.88-1.07,1.92-1.64,3C76.85,57.53,77.33,57.44,77.66,57.4Z" fill="#ff7546"></path><path d="M79.6,60.44a5.81,5.81,0,0,0,3.57,1c.68-.08,1-.44.63-.89s-1.76-1.33-2.41-2A2,2,0,0,1,81.26,56a11.66,11.66,0,0,1,4.17-4.19,2.13,2.13,0,0,1,2.14-.32,4.23,4.23,0,0,1,1.33,1A1.31,1.31,0,0,1,89,53.81a13.88,13.88,0,0,1-2.18,3.52c-.23.27-.42.35-.64.15a2.48,2.48,0,0,1-.51-.71,1.17,1.17,0,0,1,.16-.94c.38-.78,1.58-2.71,1.27-2.87s-2.61,1.71-3.48,3.15c-.61,1-.3,1.36.08,1.74s1.28.91,1.71,1.35a1.47,1.47,0,0,1,.12,2.17A3.88,3.88,0,0,1,82.82,63a4.3,4.3,0,0,1-3.11-.89,1.53,1.53,0,0,1-.6-1.4C79.13,60.39,79.36,60.29,79.6,60.44Z" fill="#ff7546"></path><path d="M8.93,47.27l12.24-3.15a.4.4,0,0,0,.26-.14.44.44,0,0,0,0-.37l-1.32-3.48q6.45,1.24,12.79,3a23.31,23.31,0,0,0-6.55,9.41l-1.44-2.19a1.39,1.39,0,0,0-.64-.61,1.32,1.32,0,0,0-.78.1L9.55,54.48a46.9,46.9,0,0,0-.48-7.67" fill="#ff7546"></path><path d="M9.12,48l10-2.57c.84-.22,2.87-.29,3.06-1.4a3,3,0,0,0-.39-1.44l-1-2.61-.87.88q6.45,1.24,12.79,3l-.31-1.19a24.67,24.67,0,0,0-6.73,9.73l1.3-.17c-.61-.92-1.35-2.78-2.52-3.12a3.22,3.22,0,0,0-1.82.32l-2.7.89L9.36,53.8l.89.68a49.26,49.26,0,0,0-.5-7.86c-.13-.9-1.49-.51-1.36.38a48,48,0,0,1,.45,7.48.72.72,0,0,0,.89.69l8.54-2.83,4-1.34c.9-.3,1.52-.7,2.21.1a18.44,18.44,0,0,1,1.2,1.82.72.72,0,0,0,1.3-.17,23.09,23.09,0,0,1,6.36-9.09.72.72,0,0,0-.31-1.19q-6.33-1.76-12.79-3c-.48-.09-1.08.32-.87.87l.74,2,.33.87.16.43c.13.25.12.29,0,.1a5.24,5.24,0,0,0-1,.11l-.91.23-2,.53-7.93,2A.71.71,0,0,0,9.12,48Z" fill="#ff7546"></path></svg>