<svg xmlns="http://www.w3.org/2000/svg" id="Layer_1" data-name="Layer 1" viewBox="0 0 260.75 167.21"><title>LOGO 2</title><path d="M239.57,47.67A17.87,17.87,0,0,1,243,58.44v50.33a17.87,17.87,0,0,1-3.46,10.77,18.74,18.74,0,0,1-9.16,6.78l-94.34,30.93a18,18,0,0,1-11.39,0L30.33,126.32a17.75,17.75,0,0,1-9.15-6.7,18.22,18.22,0,0,1-3.47-10.85V58.44A18.17,18.17,0,0,1,30.33,41.05L124.68,10a18,18,0,0,1,11.39,0l94.34,31.09A17.82,17.82,0,0,1,239.57,47.67Z" fill="#fff"></path><path d="M239.55,47.68A17.84,17.84,0,0,1,243,58.42v50.16a17.84,17.84,0,0,1-3.45,10.74,18.66,18.66,0,0,1-9.13,6.75l-94,30.84a18,18,0,0,1-11.35,0L31,126.07a17.61,17.61,0,0,1-9.13-6.67,18.18,18.18,0,0,1-3.45-10.82V58.42A18.08,18.08,0,0,1,31,41.08l94-31a18.06,18.06,0,0,1,11.35,0l94,31A17.8,17.8,0,0,1,239.55,47.68Zm-105.47,102,94-30.84a10.88,10.88,0,0,0,7.36-10.28V58.42a10.2,10.2,0,0,0-2.07-6.29,11.69,11.69,0,0,0-5.29-4l-94-30.84a9.68,9.68,0,0,0-6.75,0l-94,30.84a11.16,11.16,0,0,0-5.37,4,10.46,10.46,0,0,0-2,6.29v50.16a10.48,10.48,0,0,0,2,6.29,11.16,11.16,0,0,0,5.37,4l94,30.84A9.57,9.57,0,0,0,134.08,149.7ZM129,144.79l-94-31a5,5,0,0,1-3.84-5.22V58.42A5,5,0,0,1,35,53.2l94-31a6.41,6.41,0,0,1,3.37,0l94,31a5,5,0,0,1,2.76,1.92,5.4,5.4,0,0,1,1.08,3.3v50.16a5,5,0,0,1-3.84,5.22l-94,31A6.42,6.42,0,0,1,129,144.79Z" fill="#98d9ea"></path><path d="M239.57,47.67A17.87,17.87,0,0,1,243,58.44v50.33a17.87,17.87,0,0,1-3.46,10.77,18.74,18.74,0,0,1-9.16,6.78l-94.34,30.93a18,18,0,0,1-11.39,0L30.33,126.32a17.75,17.75,0,0,1-9.15-6.7,18.22,18.22,0,0,1-3.47-10.85V58.44A18.17,18.17,0,0,1,30.33,41.05L124.68,10a18,18,0,0,1,11.39,0l94.34,31.09A17.82,17.82,0,0,1,239.57,47.67ZM133.76,150l94.35-30.94a10.92,10.92,0,0,0,7.38-10.31V58.44a10.22,10.22,0,0,0-2.08-6.31,11.67,11.67,0,0,0-5.3-4L133.76,17.19a9.62,9.62,0,0,0-6.77,0L32.64,48.13a11.15,11.15,0,0,0-5.38,4,10.47,10.47,0,0,0-2,6.31v50.33a10.47,10.47,0,0,0,2,6.31,11.15,11.15,0,0,0,5.38,4L127,150A9.62,9.62,0,0,0,133.76,150Z" fill="#98d9ea"></path><path d="M128.59,54.66H124c-.39,0-.51-.13-.51-.51V37.24c0-.38.12-.51.51-.51h2.38c.39,0,.51.13.51.51v15.3c0,.2.08.28.29.28h1.4c.39,0,.52.13.52.51v.82C129.11,54.53,129,54.66,128.59,54.66Z" fill="#ff7546"></path><path d="M134.69,36.73c.39,0,.51.1.56.51l2.49,16.91c0,.41-.08.51-.46.51h-2.36c-.38,0-.51-.1-.56-.48l-.41-3c0-.35-.16-.35-.36-.35h-1.13c-.2,0-.25.07-.28.25l-.38,3c-.06.41-.18.51-.57.51h-.87c-.38,0-.51-.1-.46-.54l2.1-16.9c.05-.39.18-.49.56-.49ZM132.44,49c0,.15,0,.23.1.23h1c.12,0,.18,0,.15-.18l-.59-4.2c0-.08-.1-.08-.13,0Z" fill="#ff7546"></path><path d="M63.14,113.24c-7.55,1.17-11.61-1.84-12-8.32-.18-2.67-.12-3.41-.12-6.9,2.77-.2,5.54-.4,8.32-.58,0,2.57,0,4.51.11,4.92A2.84,2.84,0,0,0,62.9,105c2.34-.25,3.6-1.84,3.6-4.5,0-4.48-1.2-6.72-4.74-10.24-.6-.59-3-3.11-4.31-4.38-4.31-4.41-6.57-8.28-6.58-16.15,0-8.54,4.54-13.16,12.09-12s10.92,6.15,11.58,12a45.7,45.7,0,0,1,.36,5.29c-2.8-.14-5.61-.28-8.4-.44a43.13,43.13,0,0,0-.24-4.36c-.25-2.16-1.08-3.58-3.36-3.81s-3.48.88-3.48,3.8c0,3.82,2,6.67,4.74,9.51,1.2,1.27,3.48,3.57,4.38,4.5,4.32,4.51,6.6,7.92,6.6,14.77C75.14,107,70.33,112.13,63.14,113.24Z" fill="#ff7546"></path><path d="M104.83,70.84c.61,2.73.85,6.48.85,14.27,0,7.55-.24,10.66-1,14.79-1,5.75-4.64,9.39-12.12,10s-10.71-2.5-12-8.13c-.66-3-1-9.41-1-16.39,0-8.67.18-12.37.78-15.21,1.14-5.41,4.33-9.56,12.22-8.87C99.94,61.89,103.5,65,104.83,70.84Zm-8.74,28.5c.6-1.92.78-7.11.78-13.83a79.81,79.81,0,0,0-.72-13.12c-.36-2.32-1.33-3.26-3.44-3.37-2.29-.13-2.95.91-3.49,3.12-.42,1.85-.66,6.52-.66,13.49,0,6.79.24,12,.84,14.08.48,1.67,1.26,2.64,3.31,2.53S95.6,100.9,96.09,99.34Z" fill="#ff7546"></path><path d="M135.51,100c-1.09,5.45-4.71,8.4-12.14,8.49-6.77.1-10.08-2.52-11.41-6.72-1.21-3.61-1.69-10.46-1.69-16.46a60.21,60.21,0,0,1,1.38-14.64c1.21-5.4,5.07-8,12.2-7.9,7.43.08,10.82,3.36,11.66,9.33a55,55,0,0,1,.48,7.48h-8.57a37.86,37.86,0,0,0-.61-6.74,2.92,2.92,0,0,0-3.14-2.38,3.16,3.16,0,0,0-3.5,2.44c-.55,2.08-.67,6-.67,12.35,0,4.91.12,10.09.67,12.91a3.28,3.28,0,0,0,3.5,2.78,3.15,3.15,0,0,0,3.44-3,53.66,53.66,0,0,0,.37-6.18c2.86,0,5.72,0,8.57,0A49.47,49.47,0,0,1,135.51,100Z" fill="#ff7546"></path><path d="M141.19,108.06V63q4.59-.12,9.18-.33v45.76Q145.78,108.18,141.19,108.06Z" fill="#ff7546"></path><path d="M163.4,109.16c-2.94-.22-5.87-.4-8.81-.56,2.68-15.25,5.35-30.76,8-46.69q6.18-.44,12.35-1c2.39,16.2,4.77,32.84,7.16,50.05q-4.45-.51-8.9-.93-.79-6-1.57-11.91l-6.57-.29Q164.24,103.51,163.4,109.16Zm5.66-32.59c-.24-2.53-.42-7.29-.42-7.29s-.3,4.73-.54,7.32c0,.27-2.17,14.2-2.17,14.17l4.94.09S169.06,76.78,169.06,76.57Z" fill="#ff7546"></path><path d="M186.38,111.42V59.59c2.92-.36,5.84-.74,8.76-1.16v45q6.33.6,12.62,1.31v9.83Q197.11,112.74,186.38,111.42Z" fill="#ff7546"></path><path d="M100.63,121.7s-.14,0-.14.12v2.12c0,.17,0,.22-.22.22h-1c-.17,0-.22,0-.22-.22V116.5c0-.17,0-.22.22-.22h1.26c2,0,2,1.4,2,2v1.5A1.7,1.7,0,0,1,100.63,121.7Zm-.14-4.67v3.91c0,.08,0,.11.12.11.36,0,.39-.81.39-1.38v-1.34c0-.57,0-1.41-.39-1.41C100.53,116.92,100.49,117,100.49,117Z" fill="#ff7546"></path><path d="M104.71,116.5v7.44c0,.17-.06.22-.23.22h-1.09c-.17,0-.22,0-.22-.22V116.5c0-.17,0-.22.22-.22h1.09C104.65,116.28,104.71,116.33,104.71,116.5Z" fill="#ff7546"></path><path d="M108.55,124.16h-3c-.17,0-.22,0-.18-.22l1.46-6.66c0-.06,0-.09-.07-.09h-1.11c-.17,0-.23-.06-.23-.23v-.46c0-.17.06-.22.23-.22h2.76c.17,0,.18,0,.15.22l-1.43,6.66c0,.06,0,.1.06.1h1.33c.17,0,.23.06.23.23v.45C108.78,124.11,108.72,124.16,108.55,124.16Z" fill="#ff7546"></path><path d="M112.4,124.16h-3c-.17,0-.21,0-.18-.22l1.47-6.66c0-.06,0-.09-.07-.09h-1.12c-.17,0-.22-.06-.22-.23v-.46c0-.17,0-.22.22-.22h2.76c.17,0,.18,0,.15.22L111,123.16c0,.06,0,.1.07.1h1.33c.16,0,.22.06.22.23v.45C112.62,124.11,112.56,124.16,112.4,124.16Z" fill="#ff7546"></path><path d="M115.66,124.16h-2.14c-.16,0-.22,0-.22-.22V116.5c0-.17.06-.22.22-.22h2.14c.17,0,.23,0,.23.22v.42c0,.17-.06.22-.23.22H115c-.09,0-.13,0-.13.13v2.32c0,.09,0,.12.13.12h.62c.17,0,.22.06.22.23v.42c0,.16,0,.22-.22.22H115c-.09,0-.13,0-.13.13v2.46c0,.09,0,.13.13.13h.69c.17,0,.23,0,.23.22v.42C115.89,124.11,115.83,124.16,115.66,124.16Z" fill="#ff7546"></path><path d="M119.24,120.11l1.18,3.83c.06.17,0,.22-.16.22h-.94a.26.26,0,0,1-.3-.22l-.89-3.16s0,0,0,0v3.16c0,.17-.06.22-.23.22h-.95c-.16,0-.22,0-.22-.22V116.5c0-.17.06-.22.22-.22h1.67c1.6,0,1.6,1.19,1.6,2v0C120.17,118.77,120.17,120.09,119.24,120.11Zm-1.16-3.21v2.94c0,.08,0,.11.11.11h.09c.52,0,.52-.82.52-1.39v-.37c0-.56,0-1.41-.52-1.41h-.09C118.11,116.78,118.08,116.82,118.08,116.9Z" fill="#ff7546"></path><path d="M122.68,116.5v7.44c0,.17-.06.22-.23.22h-1.09c-.17,0-.23,0-.23-.22V116.5c0-.17.06-.22.23-.22h1.09C122.62,116.28,122.68,116.33,122.68,116.5Z" fill="#ff7546"></path><path d="M125.47,116.28c.17,0,.23,0,.25.22l1.09,7.44c0,.18,0,.22-.2.22h-1c-.17,0-.22,0-.25-.21l-.18-1.31c0-.15-.06-.15-.15-.15h-.5c-.09,0-.11,0-.12.11l-.17,1.34c0,.18-.08.22-.25.22h-.38c-.17,0-.23,0-.21-.23l.93-7.44c0-.17.08-.21.25-.21Zm-1,5.37c0,.07,0,.1,0,.1h.42c.06,0,.08,0,.07-.08l-.26-1.84s0,0-.06,0Z" fill="#ff7546"></path><path d="M129.75,123.94V116.5c0-.17.06-.22.23-.22h1.26a1.92,1.92,0,0,1,2,2.25v3.38a1.91,1.91,0,0,1-2,2.25H130C129.81,124.16,129.75,124.11,129.75,123.94Zm1.49-7v6.54a.1.1,0,0,0,.11.11c.37,0,.4-1.11.4-1.69v-3.38c0-.56,0-1.69-.4-1.69A.1.1,0,0,0,131.24,117Z" fill="#ff7546"></path><path d="M136.39,124.16h-2.14c-.17,0-.22,0-.22-.22V116.5c0-.17.05-.22.22-.22h2.14c.17,0,.23,0,.23.22v.42c0,.17-.06.22-.23.22h-.7c-.09,0-.12,0-.12.13v2.32c0,.09,0,.12.12.12h.62c.17,0,.23.06.23.23v.42c0,.16-.06.22-.23.22h-.62c-.09,0-.12,0-.12.13v2.46c0,.09,0,.13.12.13h.7c.17,0,.23,0,.23.22v.42C136.62,124.11,136.56,124.16,136.39,124.16Z" fill="#ff7546"></path><path d="M139.66,123.94V116.5c0-.17.06-.22.23-.22h1.26c2,0,1.89,1.54,1.89,2.1s.1,1.43-.7,1.86a2,2,0,0,1,.8,1.84,1.79,1.79,0,0,1-2,2.08h-1.26C139.72,124.16,139.66,124.11,139.66,123.94Zm1.49-7v2.86c0,.08,0,.12.11.12.36,0,.4-1,.4-1.55s0-1.54-.4-1.54C141.18,116.84,141.15,116.87,141.15,117Zm0,3.72v2.82c0,.08,0,.11.11.11.36,0,.4-.95.4-1.52s0-1.52-.4-1.52C141.18,120.56,141.15,120.59,141.15,120.67Z" fill="#ff7546"></path><path d="M145.71,116.28c.17,0,.23,0,.25.22l1.1,7.44c0,.18,0,.22-.21.22h-1c-.17,0-.23,0-.25-.21l-.18-1.31c0-.15-.07-.15-.16-.15h-.5c-.09,0-.11,0-.12.11l-.17,1.34c0,.18-.08.22-.25.22h-.38c-.17,0-.23,0-.2-.23l.92-7.44c0-.17.08-.21.25-.21Zm-1,5.37c0,.07,0,.1.05.1h.41c.06,0,.08,0,.07-.08l-.26-1.84s0,0-.05,0Z" fill="#ff7546"></path><path d="M150.3,120.11l1.18,3.83c.06.17,0,.22-.15.22h-1c-.17,0-.25,0-.29-.22l-.89-3.16s-.06,0-.06,0v3.16c0,.17-.06.22-.23.22H148c-.17,0-.23,0-.23-.22V116.5c0-.17.06-.22.23-.22h1.67c1.6,0,1.6,1.19,1.6,2v0C151.24,118.77,151.24,120.09,150.3,120.11Zm-1.16-3.21v2.94c0,.08,0,.11.11.11h.09c.52,0,.52-.82.52-1.39v-.37c0-.56,0-1.41-.52-1.41h-.09C149.17,116.78,149.14,116.82,149.14,116.9Z" fill="#ff7546"></path><path d="M154.75,120.11l1.19,3.83c.05.17,0,.22-.16.22h-.95c-.17,0-.25,0-.29-.22l-.89-3.16s-.06,0-.06,0v3.16c0,.17-.05.22-.22.22h-1c-.17,0-.23,0-.23-.22V116.5c0-.17.06-.22.23-.22h1.67c1.6,0,1.6,1.19,1.6,2v0C155.69,118.77,155.69,120.09,154.75,120.11Zm-1.16-3.21v2.94c0,.08,0,.11.12.11h.09c.51,0,.51-.82.51-1.39v-.37c0-.56,0-1.41-.51-1.41h-.09A.11.11,0,0,0,153.59,116.9Z" fill="#ff7546"></path><path d="M158.19,116.5v7.44c0,.17-.06.22-.22.22h-1.1c-.17,0-.22,0-.22-.22V116.5c0-.17,0-.22.22-.22H158C158.13,116.28,158.19,116.33,158.19,116.5Z" fill="#ff7546"></path><path d="M159,121.35v-2.26c0-.56,0-2.93,1.8-2.93s1.8,2.37,1.8,2.93v2.26c0,.57,0,2.93-1.8,2.93S159,121.92,159,121.35Zm1.51-3.38v4.52c0,.57,0,.94.29.94s.29-.37.29-.94V118c0-.57,0-1-.29-1S160.55,117.41,160.55,118Z" fill="#ff7546"></path></svg>