<svg xmlns="http://www.w3.org/2000/svg" id="Layer_1" data-name="Layer 1" viewBox="0 0 300 300"><title>pinguin</title><path d="M106.91,265.54c-.45,1.13-.84,2.21-1.19,3.25a13.42,13.42,0,0,1,6.43,1.64,6.67,6.67,0,0,1,3.33,4.27,9,9,0,0,1-1.13,6.29,8.66,8.66,0,0,1-1.12,1.62,9.15,9.15,0,0,1-1.9,1.63,10.79,10.79,0,0,1-2.75,1.28,12.44,12.44,0,0,1-3.72.56,13.48,13.48,0,0,1-4.55-.69,8.45,8.45,0,0,1-3.85-2.62c-1-.91-1.54-1.58-1.56-2s.06-.7.56-1a4.16,4.16,0,0,1,1.28-.49,7.11,7.11,0,0,1,1.45-.13,6.67,6.67,0,0,1,1.41.21,4.29,4.29,0,0,1,1.21.52,10.07,10.07,0,0,0,2.47,1.19,4.45,4.45,0,0,0,1.86.17,2.85,2.85,0,0,0,1.36-.58,5.73,5.73,0,0,0,1-1,7,7,0,0,0,.83-1.64,5.1,5.1,0,0,0,.32-1.71,4.28,4.28,0,0,0-.17-1.49,3.06,3.06,0,0,0-.39-.89,2.29,2.29,0,0,0-.82-.22,9.43,9.43,0,0,0-1.26-.08,9.57,9.57,0,0,0-1.41.11c-.47.08-.88.17-1.23.26a6.63,6.63,0,0,1-1,.25,2.86,2.86,0,0,1-.63,0,1.16,1.16,0,0,1-.48-.14,4,4,0,0,1-.49-.36c-.47-.32-.88-.59-1.22-.8s-.82-.51-1.42-.91a2.37,2.37,0,0,1-.81-1,2.66,2.66,0,0,1,0-1.69c.34-1.59.85-3.4,1.5-5.43s1.47-4.32,2.44-6.84a3.52,3.52,0,0,1,2.82-2.12q3.09-.5,5.93-.67t5.64-.3a2.6,2.6,0,0,1,2.86,1.56,6.27,6.27,0,0,1,.6,1.82c.09.62.21,1.22.33,1.79s.2,1.06,0,1.26a2.7,2.7,0,0,1-1.41.45l-4.61.56-5,.59C107.85,263.25,107.36,264.41,106.91,265.54Z" fill="#ff7546"></path><path d="M140.93,258.94a10.9,10.9,0,0,1,.93,2.79,26.54,26.54,0,0,1,.19,5.85,32.68,32.68,0,0,1-1.08,6.31,27.78,27.78,0,0,1-2.36,5.89,16.38,16.38,0,0,1-3.67,4.63,7.28,7.28,0,0,1-3.12,1.6,13,13,0,0,1-3.72.15,21.23,21.23,0,0,1-2.79-.45,13.68,13.68,0,0,1-2.78-1,10.68,10.68,0,0,1-1.85-1.26,7.11,7.11,0,0,1-1.58-1.86,17.24,17.24,0,0,1-1.19-3.87,22.76,22.76,0,0,1-.37-4.51,28.82,28.82,0,0,1,.51-4.82,25,25,0,0,1,1.41-4.78,22.47,22.47,0,0,1,2.38-4.39,17.86,17.86,0,0,1,3.4-3.66,8.56,8.56,0,0,1,3.14-1.5,8.17,8.17,0,0,1,3.37-.21,22.39,22.39,0,0,1,4,1,10.55,10.55,0,0,1,3.11,1.61A7.8,7.8,0,0,1,140.93,258.94Zm-9.67,1.93a10.6,10.6,0,0,0-2,2.29,22.71,22.71,0,0,0-1.88,3.38,23.48,23.48,0,0,0-2.08,7.57,17.14,17.14,0,0,0-.08,3.4,8.5,8.5,0,0,0,.6,2.62,2.16,2.16,0,0,0,1.28,1.34,2,2,0,0,0,1.65-.33,6.05,6.05,0,0,0,1.71-1.77,15.88,15.88,0,0,0,1.58-3,22.13,22.13,0,0,0,1.23-3.86,37.52,37.52,0,0,0,.73-3.74,31.53,31.53,0,0,0,.31-3.81,12.34,12.34,0,0,0-.22-3.2c-.2-.87-.55-1.37-1-1.52A2,2,0,0,0,131.26,260.87Z" fill="#ff7546"></path><path d="M166.4,258.94a10.9,10.9,0,0,1,.93,2.79,26.54,26.54,0,0,1,.19,5.85,32.68,32.68,0,0,1-1.08,6.31,27.78,27.78,0,0,1-2.36,5.89,16.38,16.38,0,0,1-3.67,4.63,7.28,7.28,0,0,1-3.12,1.6,13,13,0,0,1-3.72.15,21.23,21.23,0,0,1-2.79-.45,13.68,13.68,0,0,1-2.78-1,10.27,10.27,0,0,1-1.84-1.26,6.75,6.75,0,0,1-1.58-1.86,16.27,16.27,0,0,1-1.19-3.87,22,22,0,0,1-.38-4.51,28.82,28.82,0,0,1,.51-4.82,25,25,0,0,1,1.41-4.78,22.47,22.47,0,0,1,2.38-4.39,17.86,17.86,0,0,1,3.4-3.66,8.56,8.56,0,0,1,3.14-1.5,8.17,8.17,0,0,1,3.37-.21,22.39,22.39,0,0,1,4,1,10.55,10.55,0,0,1,3.11,1.61A7.8,7.8,0,0,1,166.4,258.94Zm-9.67,1.93a10.88,10.88,0,0,0-2,2.29,22.71,22.71,0,0,0-1.88,3.38,23.48,23.48,0,0,0-2.08,7.57,17.14,17.14,0,0,0-.08,3.4,8.5,8.5,0,0,0,.6,2.62,2.16,2.16,0,0,0,1.28,1.34,2,2,0,0,0,1.65-.33,6.05,6.05,0,0,0,1.71-1.77,15.88,15.88,0,0,0,1.58-3,22.13,22.13,0,0,0,1.23-3.86,37.52,37.52,0,0,0,.73-3.74,31.53,31.53,0,0,0,.31-3.81,12.34,12.34,0,0,0-.22-3.2c-.2-.87-.55-1.37-1-1.52A2,2,0,0,0,156.73,260.87Z" fill="#ff7546"></path><path d="M174.22,276.52c-.2,1.18-.39,2.32-.57,3.41s-.32,2.12-.45,3.07-.23,1.81-.3,2.55a.92.92,0,0,1-.34.62,1.32,1.32,0,0,1-.86,0c-.4-.09-.8-.2-1.21-.33a7.82,7.82,0,0,1-1.13-.45,2.15,2.15,0,0,1-.89-.68,1.76,1.76,0,0,1-.18-1q0-1,.09-2.49c.06-1,.15-2,.26-3.18s.24-2.34.38-3.57.29-2.45.45-3.64.33-2.33.5-3.4.32-2,.48-2.82a1.7,1.7,0,0,1,.66-1.11,2.3,2.3,0,0,1,1.34-.09,20.64,20.64,0,0,1,2.39.47c.65.17,1.3.38,2,.62a4.1,4.1,0,0,1,1,.51,2.3,2.3,0,0,1,.57.6,2.14,2.14,0,0,1,.3.71c.06.26.13.56.2.89a4.18,4.18,0,0,0,0,.56c0,.22.07.6.15,1.16s.2,1.34.35,2.36l.66,4.22c.27-.62.6-1.31,1-2.06l1.16-2.29c.4-.78.81-1.56,1.24-2.34s.83-1.52,1.23-2.21.75-1.45,1-2a4.71,4.71,0,0,1,.91-1.17,1.83,1.83,0,0,1,1.06-.45,4,4,0,0,1,1.49.21c.72.19,1.47.41,2.26.67s1.56.57,2.33.91a1.84,1.84,0,0,1,.95.85,2,2,0,0,1-.1,1.34c-.26.82-.55,1.75-.88,2.81s-.66,2.17-1,3.33-.68,2.35-1,3.54-.66,2.35-1,3.44-.58,2.1-.82,3-.43,1.68-.57,2.29a1.61,1.61,0,0,1-.42.67c-.16.14-.46.16-.91.06s-.81-.19-1.22-.32a5,5,0,0,1-1.1-.44,1.59,1.59,0,0,1-.79-.67,1.69,1.69,0,0,1-.07-1.05c.07-.52.19-1.19.34-2s.34-1.74.55-2.74.44-2,.69-3.13.52-2.15.82-3.18c-.52.9-1.07,1.89-1.65,2.94s-1.15,2.1-1.7,3.13-1,2-1.51,2.9-.82,1.67-1.1,2.28c-.09.19-.16.34-.22.45a.61.61,0,0,1-.22.25.81.81,0,0,1-.34.09,1.74,1.74,0,0,1-.55-.07,14.56,14.56,0,0,1-1.82-.46,4.92,4.92,0,0,1-.5-.22,1.36,1.36,0,0,1-.36-.32,1.83,1.83,0,0,1-.27-.48,7.5,7.5,0,0,1-.25-.73c-.35-1.25-.68-2.69-1-4.32s-.61-3.31-.87-5Q174.54,274.75,174.22,276.52Z" fill="#ff7546"></path><path d="M200.66,285.28l-3.3.64a5.58,5.58,0,0,1-1,.18,2.42,2.42,0,0,1-.68,0,1.79,1.79,0,0,1-.48-.17l-.38-.23a8.73,8.73,0,0,1-.8-.59l-1-.77a2.39,2.39,0,0,1-.68-.82,1.72,1.72,0,0,1-.13-1.1c.05-.68.14-1.48.26-2.41s.27-1.93.44-3,.37-2.19.57-3.34.44-2.3.68-3.45.49-2.25.74-3.3.5-2,.74-2.92c.18-.5.4-.8.67-.9a2.21,2.21,0,0,1,1.21.09,14.32,14.32,0,0,1,1.74.59,8.39,8.39,0,0,1,1.64.85,2.77,2.77,0,0,1,.85.85,1.46,1.46,0,0,1-.07,1.05c-.35,1-.7,2.18-1,3.43s-.71,2.53-1.07,3.85-.69,2.64-1,3.95-.62,2.56-.9,3.76c.8-.14,1.54-.25,2.24-.31s1.44-.13,2.26-.19a2.93,2.93,0,0,1,1.11.09,1.53,1.53,0,0,1,.69.64,5.1,5.1,0,0,1,.5.95,6.25,6.25,0,0,1,.3.93c.12.36.16.6.09.72s-.36.24-.89.34Z" fill="#ff7546"></path><path d="M81.65,179.78c-.26,1.32-.49,2.61-.68,3.87a1.29,1.29,0,0,1-.52.78,2.3,2.3,0,0,1-1.31,0l-1.87-.5a7,7,0,0,1-1.62-.63,2.75,2.75,0,0,1-1.06-1,2.05,2.05,0,0,1-.13-1.56,15,15,0,0,0,.61-3c.19-1.41.36-3,.5-4.82s.3-3.66.45-5.59.3-3.72.45-5.36.31-3,.5-4.11.4-1.71.65-1.84c.94-.49,2-1,3.12-1.54s2.32-1,3.54-1.45A34.71,34.71,0,0,1,87.94,152a17.38,17.38,0,0,1,3.55-.46,10.21,10.21,0,0,1,3.18.39,5.94,5.94,0,0,1,2.55,1.47,25.81,25.81,0,0,1,2.32,3,12.63,12.63,0,0,1,1.65,4,5.91,5.91,0,0,1,.13,2.15,6.2,6.2,0,0,1-.55,1.9,9.78,9.78,0,0,1-1.08,1.71,19.29,19.29,0,0,1-1.43,1.6,21.09,21.09,0,0,1-3,2.45,32.94,32.94,0,0,1-3.85,2.23A41.94,41.94,0,0,1,87,174.26c-1.53.56-3,1-4.52,1.43C82.19,177.11,81.91,178.47,81.65,179.78Zm7-13.1a17.41,17.41,0,0,0,3.24-2.5,8.4,8.4,0,0,0,1.78-2.47,2.69,2.69,0,0,0,.22-2c-.07-.29-.34-.52-.8-.68a4.93,4.93,0,0,0-1.74-.21,13.34,13.34,0,0,0-2.38.34,15.21,15.21,0,0,0-2.7.89c-.4,1.34-.77,2.73-1.13,4.16s-.73,2.94-1.1,4.5A20.2,20.2,0,0,0,88.7,166.68Z" fill="#ff7546"></path><path d="M112.81,155.39a2.6,2.6,0,0,1,0,1.53c-.35,1.11-.73,2.39-1.14,3.83s-.81,2.95-1.22,4.55-.82,3.24-1.21,4.91-.78,3.31-1.15,4.91-.72,3.11-1,4.53-.57,2.7-.8,3.81a1.3,1.3,0,0,1-.5.82,2,2,0,0,1-1.28,0c-.65-.18-1.26-.35-1.84-.53a9.26,9.26,0,0,1-1.66-.66,2.4,2.4,0,0,1-1.13-.95,2.66,2.66,0,0,1-.17-1.51c.05-.87.16-2,.32-3.36s.36-2.89.59-4.52.51-3.36.8-5.17.6-3.58.91-5.32.63-3.37,1-4.92.62-2.91.89-4.08a2,2,0,0,1,.91-1.32,2.71,2.71,0,0,1,1.73.1,16.19,16.19,0,0,1,2.5.89,16.86,16.86,0,0,1,2.34,1.26A3.28,3.28,0,0,1,112.81,155.39Z" fill="#ff7546"></path><path d="M117.46,152.77a22.67,22.67,0,0,1,4.07-1,21.52,21.52,0,0,1,4.41-.26,14.6,14.6,0,0,1,4.35.85,13.14,13.14,0,0,1,8.2,10.73,15.34,15.34,0,0,1-.28,4.89,19.12,19.12,0,0,1-1.88,5,21.14,21.14,0,0,1-3.47,4.69,25,25,0,0,1-5.08,3.94,27.89,27.89,0,0,1-6.66,2.79,5,5,0,0,1-4-.34,20.79,20.79,0,0,1-1.83-1c-.52-.34-1.11-.75-1.78-1.25l-.71-.65a3.35,3.35,0,0,1-.57-.72,2.61,2.61,0,0,1-.32-1,6.16,6.16,0,0,1,0-1.52l2.15-23.61A23.43,23.43,0,0,1,117.46,152.77Zm6.64,22.79a18.88,18.88,0,0,0,3.42-3.62,16,16,0,0,0,2-3.79,14,14,0,0,0,.78-3.54,6.74,6.74,0,0,0-.52-3.53,4.25,4.25,0,0,0-2.34-1.9,6.18,6.18,0,0,0-4.09.15q-1.31,4.88-2.31,9.61t-1.93,9.58A19.77,19.77,0,0,0,124.1,175.56Z" fill="#ff7546"></path><path d="M150.74,177.42a43,43,0,0,0-4.89,1c-.5,1-.93,1.87-1.3,2.7l-1.08,2.43a1.26,1.26,0,0,1-.72.75,2.47,2.47,0,0,1-1.29-.19l-1.06-.43q-.57-.24-1.17-.54l-.78-.5a1.39,1.39,0,0,1-.72-1.26,3.92,3.92,0,0,1,.2-1.25q.9-2.57,2.32-6t3.09-7.14q1.65-3.69,3.38-7.27c1.16-2.39,2.25-4.52,3.29-6.38a5,5,0,0,1,1.45-1.63,3.91,3.91,0,0,1,2.64-.49c1,0,1.93.13,2.72.24s1.52.25,2.17.39,1.27.31,1.83.49,1.12.33,1.69.48a2.37,2.37,0,0,1,1.47,1.08,3.27,3.27,0,0,1,.2,1.75q-.23,2.64-.37,6.06t-.22,7.14q-.08,3.72-.1,7.45c0,2.49,0,4.81,0,6.94a1.25,1.25,0,0,1-.28.93,2,2,0,0,1-1.24.26c-.65,0-1.24,0-1.79-.06a6.47,6.47,0,0,1-1.67-.35,2.68,2.68,0,0,1-1.25-.67,3,3,0,0,1-.5-1.45c-.1-.72-.18-1.51-.26-2.36s-.15-1.79-.22-2.81Zm1.82-6.41c1.13-.13,2.26-.22,3.4-.3-.05-2-.08-4.06-.11-6.08s0-4,0-6q-1.48,2.72-3.22,6c-1.15,2.19-2.31,4.47-3.47,6.82C150.31,171.28,151.43,171.13,152.56,171Z" fill="#ff7546"></path><path d="M179.24,175.9a6.35,6.35,0,0,1,1.51-.08,7.58,7.58,0,0,1,1.45.26,4.7,4.7,0,0,1,1.24.58,19.91,19.91,0,0,0,5.45,2.45c1.55.38,2.67.29,3.36-.26a.46.46,0,0,0,.17-.7,3.43,3.43,0,0,0-.93-1c-.46-.36-1-.75-1.71-1.19l-2.16-1.36c-.75-.47-1.51-1-2.26-1.45a20.54,20.54,0,0,1-2.07-1.52,11.19,11.19,0,0,1-1.8-1.84,8.11,8.11,0,0,1-1.28-7.68,12,12,0,0,1,1.13-2.71A21.22,21.22,0,0,1,185.6,154a16.78,16.78,0,0,1,2.64-2,6.84,6.84,0,0,1,1.19-.65,6.64,6.64,0,0,1,1.58-.47,8.27,8.27,0,0,1,1.89-.09,9.41,9.41,0,0,1,2.14.39,28.49,28.49,0,0,1,3.35,1.45,11.73,11.73,0,0,1,2.79,1.93,5.7,5.7,0,0,1,1.13,1.36,5.36,5.36,0,0,1,.56,1.36,6.61,6.61,0,0,1,.19,1.28c0,.41,0,.8,0,1.17a19.06,19.06,0,0,1-.37,2.2c-.17.79-.37,1.59-.59,2.39s-.47,1.58-.75,2.33a18.8,18.8,0,0,1-.81,1.93,1.5,1.5,0,0,1-2.24.78q-5.06-1.78-4.68-4.87a7.68,7.68,0,0,1,.24-1.47c.14-.56.27-1.11.41-1.67s.25-1.09.35-1.6a4.51,4.51,0,0,0,.1-1.25c0-.32-.16-.5-.36-.55s-.53.08-1,.41a7.44,7.44,0,0,0-1.34,1,13.05,13.05,0,0,0-1.43,1.52,12,12,0,0,0-1.23,1.86,6.76,6.76,0,0,0-.72,2,4.84,4.84,0,0,0,0,2,3.17,3.17,0,0,0,1.08,1.71,20.28,20.28,0,0,0,2.4,1.9c.88.59,1.76,1.17,2.64,1.73s1.71,1.11,2.49,1.65a11,11,0,0,1,1.94,1.69,4.11,4.11,0,0,1,1,1.83,2.83,2.83,0,0,1-.39,2,10.15,10.15,0,0,1-1,1.68,7.71,7.71,0,0,1-1.78,1.65,10.41,10.41,0,0,1-2.72,1.28,12.85,12.85,0,0,1-3.83.56,14.37,14.37,0,0,1-5.8-1.06,19.46,19.46,0,0,1-5.84-3.92c-1.06-.92-1.62-1.6-1.67-2a1.24,1.24,0,0,1,.71-1.11A6.37,6.37,0,0,1,179.24,175.9Z" fill="#ff7546"></path><path d="M201.94,176.79a20.26,20.26,0,0,1-.35-4,39.08,39.08,0,0,1,.29-4.57c.2-1.61.46-3.25.78-4.91s.69-3.33,1.1-5,.84-3.31,1.28-4.89c.2-.72.49-1.16.88-1.3a2.75,2.75,0,0,1,1.76.18,12.93,12.93,0,0,1,2.14.86,13.81,13.81,0,0,1,2,1.22,3.2,3.2,0,0,1,1.38,3.72c-.4,1.29-.81,2.69-1.25,4.19s-.84,3-1.21,4.55-.68,3-.95,4.5a32.28,32.28,0,0,0-.48,3.94,10.17,10.17,0,0,0,.19,2.9,1.65,1.65,0,0,0,1.09,1.38c.67.17,1.33-.15,2-1a14.4,14.4,0,0,0,1.84-3.4,48.77,48.77,0,0,0,1.67-5q.8-2.87,1.49-5.89c.45-2,.87-4,1.24-6s.71-3.71,1-5.24c.05-.75.32-1.19.81-1.34a3.41,3.41,0,0,1,1.81.05,12.11,12.11,0,0,1,2.27.9c.8.4,1.54.81,2.21,1.2a5.61,5.61,0,0,1,.8.62,1.81,1.81,0,0,1,.39.57,1.41,1.41,0,0,1,.07.65,5.37,5.37,0,0,1-.15.84q-1.11,5.32-2.25,9.76a79.28,79.28,0,0,1-2.39,7.87,29.67,29.67,0,0,1-2.76,5.72,9.9,9.9,0,0,1-3.31,3.35,10.08,10.08,0,0,1-2.6.87,11.78,11.78,0,0,1-3,.13,13.29,13.29,0,0,1-5.51-1.41,10.53,10.53,0,0,1-1.74-1.23,6.52,6.52,0,0,1-1.42-1.75A9.61,9.61,0,0,1,201.94,176.79Z" fill="#ff7546"></path><path d="M57.3,232.88c-.3,1.51-.56,3-.79,4.44a1.53,1.53,0,0,1-.59.9,2.58,2.58,0,0,1-1.5,0l-2.15-.58a8.29,8.29,0,0,1-1.86-.73,3,3,0,0,1-1.21-1.13,2.39,2.39,0,0,1-.15-1.79,17.62,17.62,0,0,0,.7-3.45c.21-1.62.41-3.47.58-5.53s.34-4.2.51-6.42.34-4.26.51-6.14.36-3.45.58-4.72.46-2,.74-2.11c1.08-.57,2.28-1.16,3.59-1.77s2.66-1.16,4.05-1.66a37.92,37.92,0,0,1,4.2-1.24,19.87,19.87,0,0,1,4.08-.53,11.88,11.88,0,0,1,3.64.45,6.83,6.83,0,0,1,2.93,1.68A29.6,29.6,0,0,1,77.82,206a14.78,14.78,0,0,1,1.9,4.54,6.87,6.87,0,0,1-.49,4.65,10.23,10.23,0,0,1-1.24,2A21.42,21.42,0,0,1,76.35,219a24,24,0,0,1-3.48,2.81,38.67,38.67,0,0,1-4.41,2.56,49.07,49.07,0,0,1-5,2.16q-2.62,1-5.19,1.64C57.92,229.81,57.6,231.38,57.3,232.88Zm8.09-15A19.69,19.69,0,0,0,69.1,215a9.91,9.91,0,0,0,2.05-2.84,3.12,3.12,0,0,0,.25-2.3c-.08-.35-.39-.61-.92-.79a5.34,5.34,0,0,0-2-.24,14.91,14.91,0,0,0-2.73.39,17.17,17.17,0,0,0-3.09,1c-.46,1.54-.89,3.13-1.31,4.78s-.83,3.37-1.25,5.16A23.24,23.24,0,0,0,65.39,217.84Z" fill="#ff7546"></path><path d="M93.05,204.9a2.93,2.93,0,0,1-.06,1.75c-.4,1.28-.83,2.74-1.3,4.39s-.94,3.39-1.41,5.23-.93,3.71-1.39,5.63l-1.32,5.63c-.43,1.83-.82,3.57-1.17,5.2s-.66,3.1-.92,4.38a1.48,1.48,0,0,1-.58.93,2.26,2.26,0,0,1-1.47,0c-.74-.2-1.44-.4-2.11-.6a10.18,10.18,0,0,1-1.9-.76,2.75,2.75,0,0,1-1.3-1.09,3,3,0,0,1-.19-1.73c.06-1,.18-2.28.36-3.86s.41-3.31.68-5.18.58-3.86.92-5.93.69-4.11,1-6.1.71-3.88,1.08-5.66.71-3.33,1-4.67a2.2,2.2,0,0,1,1-1.51,3.16,3.16,0,0,1,2,.1,18.58,18.58,0,0,1,2.86,1,18,18,0,0,1,2.68,1.45A3.68,3.68,0,0,1,93.05,204.9Z" fill="#ff7546"></path><path d="M112.72,212.41c.84-3.62,1.67-6.94,2.49-10a2.15,2.15,0,0,1,1.05-1.53,3.38,3.38,0,0,1,2.07,0l1.15.3a5.89,5.89,0,0,1,1,.34q.49.21,1,.51c.37.2.79.46,1.28.77a2.65,2.65,0,0,1,1.38,1.56,3.94,3.94,0,0,1-.19,1.89q-1,3.16-2,7.17c-.72,2.68-1.42,5.39-2.12,8.15s-1.36,5.45-2,8.08-1.19,5-1.64,6.94c-.18,1.08-1,1.45-2.56,1.11a29.07,29.07,0,0,1-4-1.11,4.52,4.52,0,0,1-2.65-2.56c-.4-.88-.8-1.91-1.22-3.07s-.83-2.43-1.25-3.78-.86-2.76-1.28-4.22-.83-2.94-1.2-4.42q-.47,2.66-1,5.29c-.32,1.77-.64,3.45-.94,5.06s-.57,3.1-.81,4.48-.43,2.58-.57,3.6a1.31,1.31,0,0,1-.56.92,2.43,2.43,0,0,1-1.49-.11l-2.07-.53a7.86,7.86,0,0,1-2-.88,2.68,2.68,0,0,1-1.25-1.08,3.18,3.18,0,0,1-.24-1.73c.06-.77.15-1.86.28-3.29s.3-3,.51-4.84.46-3.74.73-5.8.56-4.12.87-6.17.63-4,1-5.93.65-3.59,1-5.07a2.05,2.05,0,0,1,1.07-1.6,3.36,3.36,0,0,1,2.09,0c1,.31,2.07.63,3.07.94a23.1,23.1,0,0,1,3.11,1.24,4.1,4.1,0,0,1,1.88,1.38,6.26,6.26,0,0,1,.81,2.45c.14.83.33,1.88.56,3.16s.48,2.67.76,4.16l.9,4.61c.31,1.58.62,3.09.94,4.54Q111.47,217.83,112.72,212.41Z" fill="#ff7546"></path><path d="M148.47,218.1a2.37,2.37,0,0,1-1.47.19,7.8,7.8,0,0,1-4.38-1.75,5.41,5.41,0,0,1-1.6-3.49,6.39,6.39,0,0,1-.1-.84,5.15,5.15,0,0,1,0-.87c0-.31,0-.61,0-.9l-.09-.85c-.11-.54-.22-1-.32-1.37a.9.9,0,0,0-.57-.68,2.3,2.3,0,0,0-2,.71A12.8,12.8,0,0,0,135.5,211a33.5,33.5,0,0,0-2.37,4.16,36.27,36.27,0,0,0-2,4.92,23.36,23.36,0,0,0-1,4.21,20.65,20.65,0,0,0-.23,4,10,10,0,0,0,.6,3.13,2.48,2.48,0,0,0,1.4,1.6,2.09,2.09,0,0,0,1.6-.13,5.45,5.45,0,0,0,1.65-1.23,14,14,0,0,0,1.58-2.07,28.22,28.22,0,0,0,1.45-2.63,6,6,0,0,1-3.95-.89,6.92,6.92,0,0,1-2.2-3.46,1.11,1.11,0,0,1,0-.87,1.3,1.3,0,0,1,.67-.52,5.48,5.48,0,0,1,1.15-.29l1.53-.24a32.76,32.76,0,0,1,3.29-.53c1.14-.13,2.12-.26,2.94-.41a6.25,6.25,0,0,1,2.35,0,3.42,3.42,0,0,1,1.66,1.09c.34.37.66.76,1,1.15l.83,1.11a3.18,3.18,0,0,1,.75,1.75,5.73,5.73,0,0,1-.36,1.88,26.92,26.92,0,0,1-3.63,6.44,15.92,15.92,0,0,1-4.44,4,9.7,9.7,0,0,1-3.24,1.13,11.91,11.91,0,0,1-3.58,0,23.25,23.25,0,0,1-6.4-1.79,9.75,9.75,0,0,1-2.15-1.6,8,8,0,0,1-1.65-2.2,13.06,13.06,0,0,1-1.53-4.5,22.93,22.93,0,0,1-.22-5.48,32.44,32.44,0,0,1,1-5.91,33,33,0,0,1,2.19-5.84,31.39,31.39,0,0,1,3.29-5.31,21,21,0,0,1,4.29-4.23,6.31,6.31,0,0,1,1.66-.93,7.92,7.92,0,0,1,1.81-.47,12.48,12.48,0,0,1,1.82-.13,9.64,9.64,0,0,1,1.66.13,15.67,15.67,0,0,1,2.26.42,22.5,22.5,0,0,1,2.24.71,14.23,14.23,0,0,1,2.05.94,10.91,10.91,0,0,1,1.73,1.17,6.68,6.68,0,0,1,2,2.52,11.23,11.23,0,0,1,.82,3.07c0,.59,0,1.26,0,2s-.06,1.48-.13,2.22-.16,1.45-.26,2.13a15.66,15.66,0,0,1-.32,1.71A2.21,2.21,0,0,1,148.47,218.1Z" fill="#ff7546"></path><path d="M150.6,229.45a23.68,23.68,0,0,1-.4-4.54,42.6,42.6,0,0,1,.34-5.25c.23-1.85.52-3.73.89-5.63s.79-3.82,1.26-5.74,1-3.79,1.47-5.61c.23-.83.57-1.32,1-1.49a3.11,3.11,0,0,1,2,.21,14.17,14.17,0,0,1,2.46,1,17.12,17.12,0,0,1,2.28,1.41,3.67,3.67,0,0,1,1.58,4.26q-.69,2.22-1.43,4.8c-.5,1.72-1,3.47-1.39,5.23s-.79,3.48-1.09,5.16a37,37,0,0,0-.55,4.52,12,12,0,0,0,.21,3.33,1.91,1.91,0,0,0,1.26,1.58c.77.2,1.52-.17,2.26-1.11a16.13,16.13,0,0,0,2.11-3.9,55.83,55.83,0,0,0,1.92-5.78q.91-3.28,1.71-6.77c.52-2.31,1-4.6,1.43-6.84s.81-4.25,1.15-6c.06-.85.37-1.36.94-1.53a3.87,3.87,0,0,1,2.07.06,12.88,12.88,0,0,1,2.6,1c.92.47,1.77.94,2.54,1.39a6.37,6.37,0,0,1,.92.7,1.89,1.89,0,0,1,.44.67,1.5,1.5,0,0,1,.09.74c0,.27-.09.59-.17,1-.85,4.07-1.72,7.8-2.58,11.2a93.41,93.41,0,0,1-2.75,9,33.61,33.61,0,0,1-3.16,6.57,11.24,11.24,0,0,1-3.8,3.84,11.66,11.66,0,0,1-3,1,13.89,13.89,0,0,1-3.42.14,15.08,15.08,0,0,1-6.31-1.62,11.88,11.88,0,0,1-2-1.4,7.77,7.77,0,0,1-1.62-2A11.08,11.08,0,0,1,150.6,229.45Zm6.78-38.95a3.9,3.9,0,0,1,1.09-1.37,3.85,3.85,0,0,1,3.71-.53,4.47,4.47,0,0,1,2.24,1.56,3.62,3.62,0,0,1,.71,2.11,2.93,2.93,0,0,1-.22,1.24,3,3,0,0,1-.38.89,4.42,4.42,0,0,1-.79,1,4.27,4.27,0,0,1-1.15.79,3.36,3.36,0,0,1-1.52.32,4,4,0,0,1-1.59-.23,3.83,3.83,0,0,1-1.33-.85,4.32,4.32,0,0,1-.91-1.37,3.93,3.93,0,0,1-.3-1.77A4.28,4.28,0,0,1,157.38,190.5Zm13.36.06a3.8,3.8,0,0,1,1.11-1.34,4,4,0,0,1,1.64-.73,4.5,4.5,0,0,1,2.09.15,4.21,4.21,0,0,1,2.15,1.58,3.48,3.48,0,0,1,.62,2.05c0,.26,0,.48-.08.66a6.31,6.31,0,0,1-.13.62,5.43,5.43,0,0,1-.45.92,4.57,4.57,0,0,1-2,1.79,3.57,3.57,0,0,1-1.5.32,3.8,3.8,0,0,1-3-1.09,3.69,3.69,0,0,1-1-3.22A4.67,4.67,0,0,1,170.74,190.56Z" fill="#ff7546"></path><path d="M193.43,204.9a2.93,2.93,0,0,1-.06,1.75c-.4,1.28-.83,2.74-1.3,4.39s-.94,3.39-1.41,5.23-.93,3.71-1.39,5.63L188,227.53c-.43,1.83-.82,3.57-1.17,5.2s-.66,3.1-.92,4.38a1.48,1.48,0,0,1-.58.93,2.26,2.26,0,0,1-1.47,0c-.74-.2-1.44-.4-2.11-.6a10.18,10.18,0,0,1-1.9-.76,2.81,2.81,0,0,1-1.3-1.09,3,3,0,0,1-.19-1.73c.06-1,.18-2.28.36-3.86s.41-3.31.69-5.18.57-3.86.91-5.93.69-4.11,1-6.1.72-3.88,1.09-5.66.71-3.33,1-4.67a2.23,2.23,0,0,1,1-1.51,3.16,3.16,0,0,1,2,.1,18.58,18.58,0,0,1,2.86,1,17.53,17.53,0,0,1,2.68,1.45A3.68,3.68,0,0,1,193.43,204.9Z" fill="#ff7546"></path><path d="M213.1,212.41c.84-3.62,1.67-6.94,2.5-10a2.12,2.12,0,0,1,1-1.53,3.38,3.38,0,0,1,2.07,0l1.15.3a5.89,5.89,0,0,1,1,.34q.49.21,1,.51c.37.2.8.46,1.28.77a2.68,2.68,0,0,1,1.39,1.56,4,4,0,0,1-.2,1.89q-1,3.16-2,7.17c-.72,2.68-1.42,5.39-2.12,8.15s-1.36,5.45-2,8.08-1.19,5-1.64,6.94c-.17,1.08-1,1.45-2.56,1.11a29.07,29.07,0,0,1-4-1.11,4.55,4.55,0,0,1-2.65-2.56c-.4-.88-.8-1.91-1.21-3.07s-.84-2.43-1.26-3.78-.86-2.76-1.28-4.22-.83-2.94-1.2-4.42q-.47,2.66-1,5.29c-.32,1.77-.64,3.45-.94,5.06l-.81,4.48q-.36,2.07-.57,3.6a1.31,1.31,0,0,1-.56.92,2.43,2.43,0,0,1-1.49-.11L195,237.3a7.65,7.65,0,0,1-2-.88,2.66,2.66,0,0,1-1.26-1.08,3.28,3.28,0,0,1-.24-1.73c.06-.77.15-1.86.28-3.29s.3-3,.51-4.84.46-3.74.73-5.8.56-4.12.87-6.17.63-4,1-5.93.65-3.59,1-5.07a2.07,2.07,0,0,1,1.07-1.6,3.36,3.36,0,0,1,2.09,0c1,.31,2.07.63,3.07.94a23.1,23.1,0,0,1,3.11,1.24,4.1,4.1,0,0,1,1.88,1.38,6.26,6.26,0,0,1,.81,2.45c.14.83.33,1.88.56,3.16s.48,2.67.76,4.16l.9,4.61c.31,1.58.62,3.09.94,4.54Q211.85,217.83,213.1,212.41Z" fill="#ff7546"></path><path d="M249.66,206.45a12.32,12.32,0,0,1,1.09,3.35,31.13,31.13,0,0,1,.21,6.76,36.45,36.45,0,0,1-1.26,7.26,32.88,32.88,0,0,1-2.73,6.8,19.44,19.44,0,0,1-4.24,5.42,9.42,9.42,0,0,1-3.59,1.77,12.75,12.75,0,0,1-4.3.19,31.06,31.06,0,0,1-3.33-.53,12.49,12.49,0,0,1-3.12-1.09,12.86,12.86,0,0,1-2.26-1.53,7.39,7.39,0,0,1-1.75-2.14,17.13,17.13,0,0,1-1.53-4.43,23.83,23.83,0,0,1-.47-5.21A29.63,29.63,0,0,1,224.77,212a28.9,28.9,0,0,1,2.83-5.1,23.68,23.68,0,0,1,3.91-4.33,10.49,10.49,0,0,1,3.56-1.75,9,9,0,0,1,4-.3,24.76,24.76,0,0,1,4.63,1.2,13,13,0,0,1,3.64,2A8.88,8.88,0,0,1,249.66,206.45Zm-11.24,2.22a14.32,14.32,0,0,0-2.22,2.84,30.94,30.94,0,0,0-2.07,4,35.68,35.68,0,0,0-1.56,4.24,25.77,25.77,0,0,0-.85,4.16,24.31,24.31,0,0,0-.17,4,10.23,10.23,0,0,0,.6,3.18,2.45,2.45,0,0,0,1.49,1.62,2.07,2.07,0,0,0,1.88-.38,8.33,8.33,0,0,0,2-2.09,19.89,19.89,0,0,0,1.86-3.48,34.38,34.38,0,0,0,1.51-4.5,35.48,35.48,0,0,0,.9-4.42,33.22,33.22,0,0,0,.34-4.5,14.21,14.21,0,0,0-.41-3.64q-.41-1.51-1.26-1.77C239.83,207.73,239.16,208,238.42,208.67Z" fill="#ff7546"></path><path d="M155.72,35.05c3.28,4.52,13.12,3.72,13.12,3.72s6.92-.09,17.48-1.15c20,0,24.12,25.1,24.12,31.84,2.13,24.66-15,37.69-18.89,39.73s-4.52,3.64-4.52,3.64l-5,9.93s1.6,3.29,1.33,4.62-1.86,8.24-28.23,8.24S126.8,129,126.8,127a4.84,4.84,0,0,1,1.33-3.72,3.3,3.3,0,0,0-.08-3.73c-.54-.71-5.06-9.58-6.21-17.38s-.09-14.64,2-18.54a16.28,16.28,0,0,0,1.59-8.25S125,68.93,125,65.2s-1.77-2.48-1.77-8.16a21.51,21.51,0,0,1,1.59-8.87,13.64,13.64,0,0,0,2-4.7c.18-1.95-4.16-2.13-10.37-2.48s-8.25-.62-10.29-1.86-.62-2.31-.62-2.31l13.92-5.32S105.52,27,104.81,26.71s-1.6-.71-.89-2.66,6.21-2.75,10.47-3.46,11.08-2,11.08-2,6.83-4.79,15-4.79,9.94,1.24,12.6,2.75,2,13.84,2,13.84A16.1,16.1,0,0,0,155.72,35.05ZM192.79,50.3c-4.77-5-7.27.44-7.27.44s-1.77,3.91-4.08,9.85-1.06,9.22,2.31,16A90.92,90.92,0,0,1,189.16,91s-.63,7.9,3.72,3.55c10.38-9.85,7.73-24.85,7.73-24.85S198.56,56.33,192.79,50.3Z" fill="#ff7546"></path></svg>