<svg xmlns="http://www.w3.org/2000/svg" id="Layer_1" data-name="Layer 1" viewBox="0 0 300 300"><title>quilmes</title><g id="Grupo_50" data-name="Grupo 50"><g id="Grupo_49" data-name="Grupo 49"><path id="Trazado_41" data-name="Trazado 41" d="M89.39,204.25a4.66,4.66,0,0,1-1.26,1.69,6.69,6.69,0,0,1-2.87,1.33c-2.91.62-4.34-.75-4.34-2.89a4.14,4.14,0,0,1,1.32-3.13,5.6,5.6,0,0,1,3-1.54,5,5,0,0,1,2.72.1,2.83,2.83,0,0,1,1.3,1.12l-1.1.48a1.63,1.63,0,0,0-.77-.72,3.73,3.73,0,0,0-2.12-.08A3.68,3.68,0,0,0,82,204.13a2.45,2.45,0,0,0,.73,1.88,3,3,0,0,0,2.6.37,4.37,4.37,0,0,0,2.28-1.11,3.27,3.27,0,0,0,.72-1Z" fill="#ff7546"></path><path id="Trazado_42" data-name="Trazado 42" d="M92.74,198.33l6.59-1.41v.89L93.75,199v2.14L99.18,200v.85L93.75,202v2.42l5.84-1.24v.88l-6.86,1.46Z" fill="#ff7546"></path><path id="Trazado_43" data-name="Trazado 43" d="M103.15,196.11l4.85-1a2.57,2.57,0,0,1,2,.15,1.54,1.54,0,0,1,.64,1.4,2.6,2.6,0,0,1-1.92,2.44l2.63,2.47-1.33.28-2.41-2.35-3.45.73v2.87l-1,.21Zm1,.66v2.6l3.53-.75a2.42,2.42,0,0,0,1.67-.91,1.45,1.45,0,0,0,.24-.81,1.22,1.22,0,0,0-.21-.72c-.33-.45-.84-.34-1.31-.25Z" fill="#ff7546"></path><path id="Trazado_44" data-name="Trazado 44" d="M120,192.52l1.11-.23-3.37,7.9-1,.21L113.31,194l1.12-.24,2.49,4.78a3.32,3.32,0,0,1,.35.82,3,3,0,0,1,.26-.84Z" fill="#ff7546"></path><path id="Trazado_45" data-name="Trazado 45" d="M124,191.69l6.59-1.41v.89L125,192.35v2.15l5.43-1.16v.84L125,195.35v2.42l5.84-1.25v.89l-6.86,1.45Z" fill="#ff7546"></path><path id="Trazado_46" data-name="Trazado 46" d="M134.22,189.5l6.61-1.4V189l-5.61,6.62,5.71-1.21v.89l-7.13,1.52v-.85l5.59-6.64-5.17,1.1Z" fill="#ff7546"></path><path id="Trazado_47" data-name="Trazado 47" d="M147,186.78l1.07-.23,3.66,6.41-1.16.25-.87-1.59-4.39.93-.87,1.95-1.13.24Zm.76,1.4c-.05-.11-.12-.22-.16-.33a2,2,0,0,1-.09-.26c0,.1-.06.21-.1.32s-.11.28-.17.42l-1.51,3.3,3.53-.75Z" fill="#ff7546"></path><path id="Trazado_48" data-name="Trazado 48" d="M163.12,183.34l1.07-.23,3.66,6.41-1.16.25-.87-1.59-4.39.93-.87,2-1.13.24Zm.76,1.41c0-.12-.12-.22-.16-.34a2.5,2.5,0,0,1-.09-.25c0,.1-.06.2-.1.31s-.11.28-.17.43l-1.51,3.3,3.53-.75Z" fill="#ff7546"></path><path id="Trazado_49" data-name="Trazado 49" d="M170.68,181.75l4.86-1a2.54,2.54,0,0,1,2,.16,1.55,1.55,0,0,1,.64,1.39,2.6,2.6,0,0,1-1.92,2.44l2.63,2.47-1.33.28-2.42-2.35-3.44.73v2.87l-1,.22Zm1,.65V185l3.53-.75a2.44,2.44,0,0,0,1.66-.91,1.46,1.46,0,0,0,.25-.81,1.16,1.16,0,0,0-.22-.72c-.32-.45-.84-.34-1.3-.25Z" fill="#ff7546"></path><path id="Trazado_50" data-name="Trazado 50" d="M188.77,184.09c-.13.16-.25.29-.4.45a5.86,5.86,0,0,1-2.72,1.37c-2.47.52-4.08-.85-4.08-2.91a4.42,4.42,0,0,1,.61-2.18,5.58,5.58,0,0,1,3.64-2.47,4.14,4.14,0,0,1,3.1.36,2.29,2.29,0,0,1,.69.73l-1,.52a1.71,1.71,0,0,0-.45-.44,3,3,0,0,0-2.26-.31,3.79,3.79,0,0,0-3.25,3.5,2.67,2.67,0,0,0,.48,1.57,2.78,2.78,0,0,0,2.75.73,4.13,4.13,0,0,0,2.35-1.45,2.57,2.57,0,0,0,.57-1.42l-3.15.67V182l4-.85v3.79l-.88.19Z" fill="#ff7546"></path><path id="Trazado_51" data-name="Trazado 51" d="M193.6,176.86l6.59-1.4v.88l-5.58,1.19v2.15l5.43-1.16v.84l-5.43,1.16v2.42l5.84-1.24v.89L193.59,184Z" fill="#ff7546"></path><path id="Trazado_52" data-name="Trazado 52" d="M205.05,174.43l4.81,4.11a8.51,8.51,0,0,1,.76.71,9.07,9.07,0,0,1-.06-1v-5l1-.2v7.18l-1,.21-5.06-4.3a7.12,7.12,0,0,1-.55-.54c0,.41,0,.82,0,1.23v4.8l-1,.2v-7.18Z" fill="#ff7546"></path><path id="Trazado_53" data-name="Trazado 53" d="M214.53,172.41l6.86-1.46v.86l-2.93.62v6.32l-1,.22v-6.33l-2.91.62Z" fill="#ff7546"></path><path id="Trazado_54" data-name="Trazado 54" d="M224.37,170.32l1-.22v7.17l-1,.23Z" fill="#ff7546"></path><path id="Trazado_55" data-name="Trazado 55" d="M230.56,169l4.82,4.11a8.51,8.51,0,0,1,.76.71,9.24,9.24,0,0,1-.06-1v-5l1-.2v7.18l-1,.21-5.06-4.3c-.26-.24-.35-.32-.56-.54a10,10,0,0,1,.05,1.23v4.79l-1,.21v-7.18Z" fill="#ff7546"></path><path id="Trazado_56" data-name="Trazado 56" d="M243.6,166.21l1.07-.23,3.66,6.41-1.16.24-.87-1.58-4.39.93-.87,2-1.13.24Zm.76,1.41c-.05-.12-.12-.22-.16-.33a1.29,1.29,0,0,1-.08-.26c0,.1-.06.2-.11.31s-.11.28-.17.43l-1.51,3.3,3.53-.76Z" fill="#ff7546"></path></g></g><path id="Trazado_57" data-name="Trazado 57" d="M130.33,102A8.9,8.9,0,0,1,137,93c3.86-.81,7.23,1.9,7.46,6.07a8.86,8.86,0,0,1-6.62,9C133.94,108.88,130.58,106.17,130.33,102ZM50.1,196.75c4.65.58,11.59,1.53,16.59-4.55C65.9,203.48,59.24,211.25,48.9,211s-16.66,0-21,5.69L27,217.91c.91-10.63,4-17.35,12.6-20C32,196.5,12.39,183.69,19.56,145c4.6-24.83,17.64-38.86,28.7-43-3.66,3.88-5.61,6.61-9.38,13.91-11.67,22.59-10.4,63.56,7.91,60.47s26.71-32.6,24.26-53.39c-2.46-21-15.83-12.94-18.67-3,3.81-4.71,14.19-1,11.53,19.65-3.62,28-26.92,31.41-24.79,2,2.21-26.28,13.63-37.49,22.12-40,9-2.58,28.57,8.9,20,53C76.59,174.32,68.39,191.27,50.1,196.75Zm.36-66c.14,2.85,1.68,4.56,3.49,3.8s3.16-3.71,3-6.56-1.66-4.62-3.48-3.86S50.34,127.84,50.46,130.73ZM261.7,147c-6.31,1.07-9.42-2-10.94-5.53a42.89,42.89,0,0,1-6.26,7.13h0c-5.42,4.15-12.14,4.88-15.28,3-8.21-5-6.9-19.84-6.9-19.84s-6,15.79-11.45,22.87c-6.39,8.36-11.67,3.61-10.42-4.18,1.82-11.37,6-38.79,6-38.79,1-5.76-1.61-5.7-3.86-1.54a27.64,27.64,0,0,0-3.67,10.71L193,160.31l-12.27,2.6,7.13-48.79c.7-4-2-3.82-4.44-.1a24.32,24.32,0,0,0-2.8,7.4s-5.93,41.71-6.26,42.83L162,166.89l4-27.41c-3.29,9.83-8,20.07-13,27.07-5.43,7.63-11.11,5.27-10.39-1.23l2.54-20.7c-1.87,5.89-8.45,20.18-13.53,27-5.43,7.35-10.31,4-9.71-2.09l2.85-21.08c-5.11,12.64-9.71,21.84-13.67,27.66-4.61,6.77-10.49,4.28-9.77-2.4l1.43-13.79c-1.71,5.25-7.32,15.49-10.13,19.64-4.38,6.47-11.71,7.47-9.81-5.22l7.43-51.83,12.26-2.61c-.45,1.89-5.34,37.79-6.06,41.8s1.6,2.76,3,.56a56.28,56.28,0,0,0,5.43-15.09l4-28.63,12.26-2.6c-.13.43-4.21,32-5.56,39.49-1.3,7.2,1.89,5.12,3.73,1.44,2-4,5-13.21,6.54-18.42s3.85-24.33,3.85-24.33l12.25-2.6c-.81,6.09-5.65,40.25-5.65,40.27-.93,5.29,1.3,4.78,3.17,1.57,5.06-9.52,7.72-22.22,8.49-26s5.5-38.37,5.5-38.37l12-2.53C165,89.46,157,146,157,146c-1.21,8.22,2.48,5.36,4.44.35,1-2.61,5.52-14.95,5.89-16l3.69-25,12-2.55-1.67,10.76a61.52,61.52,0,0,1,6.36-9.15c6.06-6.91,11.84-8.1,12.42.45a44.41,44.41,0,0,1,0,5.16,65.76,65.76,0,0,1,4.85-7.68c8.22-11.2,15.62-9.09,14.79.73,0,0-4.53,30.15-4.81,32.14-.5,3.59,1,5.37,2.79,2.41,0,0,3.45-6.23,4.35-11.33,2.56-15.22,8.33-35.21,22.95-38s13.71,17.78,11.36,24.11c-2.29,6.15-6.64,15.15-20.73,16.52,0,0-.39,2.76-.39,3.07a67.6,67.6,0,0,0-.53,9.43c.3,2.55,2.66,8.74,9,5.15,1.48-.84,3.69-3.43,6.27-7a21.27,21.27,0,0,1-.72-4.34c0-.28-.07-.57-.09-.86a9.63,9.63,0,0,1,0-1.2c0-.18,0-.28,0-.28l0,0a9.84,9.84,0,0,1,7.31-8.46,6.83,6.83,0,0,1,3.24.09c2.31-3.79,4.58-7.64,6.62-11.15a36,36,0,0,1-3.68-18.66C264,83.65,272.9,82.31,272.9,82.31s6.35-1.77,7.65,4.65c.79,3.9-2.33,10-4.88,14.14-.07.11-.18.31-.33.59,2.26,5,6.21,14.72,6.62,21.73C282.57,133.81,275.11,144.73,261.7,147ZM236,126.84s1.13-.13,3.09-.53c2.57-.53,4-3.44,4.2-5.75,0,0,3.43-23,3.62-25.85a6.53,6.53,0,0,0,0-1.17A2.45,2.45,0,0,0,245,91.07a3.43,3.43,0,0,0-1.69.35,3.57,3.57,0,0,0-1.09.72,6.39,6.39,0,0,0-1.54,2.65,16.32,16.32,0,0,0-.64,2.85S237.25,117.13,236,126.84Zm36.26,3c-.29-3.49,0-5-4.76-14.45-1.84,3.12-3.87,6.5-6,9.89a7.14,7.14,0,0,1,3.18,5.86,9.85,9.85,0,0,1-7.34,9.89A6.51,6.51,0,0,1,252.1,140a7.68,7.68,0,0,0,9.08,4.61C269.21,143,272.72,135.25,272.27,129.85Zm2.36-30.77s4.2-8.25,3.34-11.56a2.89,2.89,0,0,0-3.2-2.53,2.92,2.92,0,0,0-1.11.37c-5.09,2.77.31,13.37.31,13.37.1.19.23.48.41.83Z" fill="#ff7546"></path></svg>